<svg xmlns="http://www.w3.org/2000/svg" viewBox="0 0 50.36 23.24">
	<path fill="#f68e2f" fill-rule="evenodd" d="M0,.64H12.24l-.62,3.61H4.11V9.41h6.26v3.53H4.11v9.68H0Zm16.26,5.2L14.39,3a17,17,0,0,1,9.18-3c5.18,0,6.53,3.2,6.53,5.62V17a4.89,4.89,0,0,0,1.59,3.65l-2,2.6A3.87,3.87,0,0,1,28,22.15a4,4,0,0,1-1.19-1.92,8.83,8.83,0,0,1-6.17,3c-3.7,0-7-2.13-7-6.62s3.79-7.25,9-7.63A13.19,13.19,0,0,1,26.12,9s0-1.74,0-2.93-.58-2.69-3.7-2.69-6.12,2.46-6.12,2.46m9.86,6L26,17.26S24.25,20.05,21.37,20A3.4,3.4,0,0,1,18,16.16a4.56,4.56,0,0,1,4.43-4.33c3.19-.32,3.74,0,3.74,0M44,6.88,46,.71h4.32L42.79,22.65H38.88L31.77.71h4.42l3.89,12c.33,1,.66,2,1,3.08.11-.26.2-.54.29-.81.92-2.69,1.8-5.4,2.69-8.1"/>
</svg>