<svg xmlns="http://www.w3.org/2000/svg" width="227.09" height="132.101"><path fill="#F68E2F" d="M0 102.194L33.445 0v131.075z"/><g fill="#F79930"><path d="M66.134 9.99c0 3.139-.703 5.528-2.108 7.167-1.499 1.734-3.748 2.577-6.699 2.577h-2.764v15.084h-1.64V18.094h4.403c4.872 0 7.121-2.529 7.121-8.104 0-5.481-2.249-8.058-7.121-8.058h-7.168V.292h7.167c2.952 0 5.2.843 6.699 2.576 1.407 1.594 2.11 3.983 2.11 7.122zM51.799 34.818h-1.64V3.056h1.64v31.762zm5.528-17.849h-4.403V3.056h4.403c2.108 0 3.654.515 4.591 1.593.983 1.078 1.452 2.858 1.452 5.341 0 4.918-1.78 6.979-6.043 6.979zm-2.764-1.639h2.764c2.436 0 3.092-.749 3.326-1.077.703-.796 1.031-2.202 1.031-4.263 0-4.45-1.5-5.294-4.357-5.294h-2.764V15.33zM84.168 24.699v10.213h-1.686V24.699c0-2.296-.656-4.123-2.014-5.481a7.1 7.1 0 0 0-1.967-1.265c2.623-.984 3.935-3.56 3.935-7.729 0-2.764-.562-4.825-1.687-6.137-1.17-1.358-2.951-2.015-5.434-2.015h-7.167V.386h7.167c2.952 0 5.2.891 6.699 2.624 1.359 1.593 2.062 3.982 2.062 7.214 0 3.186-.703 5.622-2.062 7.261-.14.141-.281.328-.468.468 1.686 1.64 2.622 3.889 2.622 6.746zM69.787 34.912h-1.64V3.15h1.64v31.762zm4.965-17.568h-3.841V3.15h4.403c2.108 0 3.654.562 4.591 1.64.938 1.124 1.405 2.951 1.405 5.434 0 5.06-1.732 7.121-5.996 7.121h-.562zm4.966 17.568V24.699c0-3.045-1.452-4.544-4.404-4.544H72.55v14.757h-1.639V18.469H75.314c3.888 0 6.09 2.249 6.09 6.23v10.213h-1.686zm-6.605-19.207h2.202c2.389 0 3.092-.75 3.326-1.077.703-.89 1.03-2.342 1.03-4.404 0-4.638-1.499-5.388-4.356-5.388H72.55v10.869h.563zM102.859 10.083V24.98c0 3.092-.656 5.434-1.967 7.074-.984 1.265-2.857 2.764-6.23 2.764s-5.247-1.499-6.23-2.764c-1.312-1.64-1.968-3.982-1.968-7.074V10.083c0-3.044.656-5.387 1.968-7.074.984-1.265 2.857-2.717 6.23-2.717s5.247 1.452 6.23 2.717c1.311 1.687 1.967 4.03 1.967 7.074zm-1.64 0c0-2.67-.562-4.685-1.639-6.043-1.124-1.405-2.764-2.108-4.919-2.108s-3.794.703-4.919 2.108c-1.077 1.358-1.64 3.373-1.64 6.043V24.98c0 2.67.562 4.685 1.64 6.043 1.171 1.452 2.811 2.155 4.919 2.155 2.107 0 3.748-.703 4.919-2.155 1.077-1.358 1.639-3.373 1.639-6.043V10.083zm-2.529-5.34c.937 1.124 1.406 2.904 1.406 5.34V24.98c0 4.731-1.828 7.074-5.435 7.074s-5.434-2.342-5.434-7.074V10.083c0-2.436.468-4.216 1.405-5.34.843-1.125 2.202-1.687 4.029-1.687s3.185.562 4.029 1.687zm-.234 5.34c0-5.387-2.483-5.387-3.795-5.387-1.312 0-3.794 0-3.794 5.387V24.98c0 5.434 2.482 5.434 3.794 5.434 1.312 0 3.795 0 3.795-5.434V10.083zM120.425 12.426v-2.202c0-2.67-.515-4.731-1.593-6.09-1.124-1.358-2.764-2.062-4.918-2.062-2.155 0-3.795.703-4.919 2.062-1.077 1.452-1.64 3.467-1.64 6.09v14.85c0 6.793 3.561 8.198 6.559 8.198 2.951 0 6.511-1.405 6.511-8.198v-2.249h1.687v2.249c0 3.045-.656 5.388-2.015 7.074-.984 1.265-2.811 2.764-6.184 2.764s-5.247-1.5-6.23-2.764c-1.312-1.64-1.968-3.982-1.968-7.074v-14.85c0-3.045.656-5.434 1.968-7.074.984-1.265 2.857-2.764 6.23-2.764s5.2 1.5 6.184 2.764c1.358 1.686 2.015 4.029 2.015 7.074v2.202h-1.687zm-1.077-2.202v2.202h-1.686v-2.202c0-5.388-2.436-5.388-3.748-5.388-1.312 0-3.795 0-3.795 5.388v14.85c0 2.015.375 3.467 1.078 4.357.328.515 1.031 1.078 2.717 1.078s2.342-.562 2.717-1.078c.703-.89 1.031-2.342 1.031-4.357v-2.249h1.686v2.249c0 4.731-1.827 7.074-5.434 7.074s-5.434-2.343-5.434-7.074v-14.85c0-4.731 1.827-7.074 5.434-7.074s5.434 2.343 5.434 7.074zM126.515 33.272h12.648v1.64h-14.288V.386h14.288v1.687h-12.648v31.199zm12.648-28.436h-9.884v10.588h9.884v1.686h-11.524V3.15h11.524v1.686zm0 15.038h-9.884v10.634h9.884v1.64h-11.524v-13.96h11.524v1.686zM142.301 10.271c0-5.856 3.326-9.885 8.245-9.885 3.373 0 5.247 1.453 6.23 2.717 1.358 1.733 2.014 4.123 2.014 7.168v2.201h-1.686v-2.201c0-2.764-.562-4.778-1.64-6.09-1.078-1.405-2.717-2.108-4.918-2.108-2.108 0-3.795.796-4.966 2.437-1.077 1.452-1.64 3.373-1.64 5.762 0 5.434 4.216 7.214 5.996 7.963l.796.375c1.593.609 5.293 2.108 5.293 6.746 0 4.31-2.061 6.793-5.48 6.793-1.827 0-3.186-.562-4.076-1.64-.937-1.171-1.405-2.951-1.405-5.388v-2.202h1.639v2.202c0 2.015.375 3.467 1.078 4.357.328.422 1.03 1.031 2.764 1.031 3.373 0 3.794-3.232 3.794-5.153 0-3.232-2.201-4.31-4.216-5.2l-.843-.375c-.984-.421-2.67-1.124-4.169-2.577-1.873-1.827-2.81-4.122-2.81-6.933zm16.49 15.084c0 2.67-.656 4.873-1.967 6.605-1.546 1.967-3.607 2.952-6.277 2.952-2.764 0-4.826-.891-6.231-2.67-1.358-1.64-2.014-4.029-2.014-7.121v-2.202h1.64v2.202c0 2.67.562 4.731 1.64 6.09 1.124 1.358 2.764 2.061 4.966 2.061 2.061 0 3.794-.796 4.918-2.342 1.078-1.358 1.64-3.326 1.64-5.575 0-5.387-4.311-7.167-5.95-7.776l-.75-.328c-1.733-.75-5.34-2.39-5.34-6.98 0-3.232 1.452-7.121 5.481-7.121 1.827 0 3.185.562 4.075 1.686.937 1.172 1.405 2.999 1.405 5.435v2.201h-1.687v-2.201c0-5.435-2.482-5.435-3.794-5.435-3.561 0-3.842 4.123-3.842 5.435 0 3.186 2.155 4.59 4.357 5.434l.75.328c.89.375 2.576.984 4.075 2.436 1.921 1.78 2.905 4.075 2.905 6.886zM160.898 10.271c0-5.856 3.326-9.885 8.245-9.885 3.373 0 5.247 1.453 6.23 2.717 1.359 1.733 2.015 4.123 2.015 7.168v2.201h-1.687v-2.201c0-2.764-.562-4.778-1.64-6.09-1.077-1.405-2.716-2.108-4.918-2.108-2.108 0-3.794.796-4.966 2.437-1.077 1.452-1.64 3.373-1.64 5.762 0 5.434 4.216 7.214 5.996 7.963l.796.375c1.593.609 5.294 2.108 5.294 6.746 0 4.31-2.061 6.793-5.481 6.793-1.827 0-3.186-.562-4.076-1.64-.937-1.171-1.405-2.951-1.405-5.388v-2.202h1.64v2.202c0 2.015.375 3.467 1.078 4.357.328.422 1.03 1.031 2.764 1.031 3.373 0 3.794-3.232 3.794-5.153 0-3.232-2.202-4.31-4.216-5.2l-.843-.375c-.984-.421-2.67-1.124-4.169-2.577-1.874-1.827-2.811-4.122-2.811-6.933zm16.49 15.084c0 2.67-.656 4.873-1.968 6.605-1.546 1.967-3.607 2.952-6.277 2.952-2.764 0-4.825-.891-6.23-2.67-1.359-1.64-2.014-4.029-2.014-7.121v-2.202h1.639v2.202c0 2.67.562 4.731 1.64 6.09 1.125 1.358 2.764 2.061 4.966 2.061 2.061 0 3.794-.796 4.918-2.342 1.078-1.358 1.64-3.326 1.64-5.575 0-5.387-4.31-7.167-5.949-7.776l-.75-.328c-1.734-.75-5.341-2.39-5.341-6.98 0-3.232 1.452-7.121 5.481-7.121 1.827 0 3.186.562 4.076 1.686.937 1.172 1.405 2.999 1.405 5.435v2.201h-1.687v-2.201c0-5.435-2.482-5.435-3.794-5.435-3.56 0-3.841 4.123-3.841 5.435 0 3.186 2.155 4.59 4.357 5.434l.749.328c.89.375 2.577.984 4.076 2.436 1.92 1.78 2.904 4.075 2.904 6.886zM195.891 10.083V24.98c0 3.092-.655 5.434-1.966 7.074-.985 1.265-2.858 2.764-6.231 2.764s-5.247-1.499-6.231-2.764c-1.312-1.64-1.967-3.982-1.967-7.074V10.083c0-3.044.655-5.387 1.967-7.074.984-1.265 2.858-2.717 6.231-2.717s5.246 1.452 6.231 2.717c1.31 1.687 1.966 4.03 1.966 7.074zm-1.64 0c0-2.67-.562-4.685-1.64-6.043-1.125-1.405-2.764-2.108-4.918-2.108-2.155 0-3.795.703-4.919 2.108-1.078 1.358-1.639 3.373-1.639 6.043V24.98c0 2.67.562 4.685 1.639 6.043 1.171 1.452 2.811 2.155 4.919 2.155 2.107 0 3.747-.703 4.918-2.155 1.078-1.358 1.64-3.373 1.64-6.043V10.083zm-2.53-5.34c.938 1.124 1.406 2.904 1.406 5.34V24.98c0 4.731-1.827 7.074-5.434 7.074s-5.435-2.342-5.435-7.074V10.083c0-2.436.469-4.216 1.406-5.34.843-1.125 2.202-1.687 4.029-1.687s3.185.562 4.028 1.687zm-.234 5.34c0-5.387-2.482-5.387-3.794-5.387-1.312 0-3.795 0-3.795 5.387V24.98c0 5.434 2.483 5.434 3.795 5.434 1.312 0 3.794 0 3.794-5.434V10.083zM198.748 10.271c0-5.856 3.326-9.885 8.244-9.885 3.373 0 5.247 1.453 6.23 2.717 1.359 1.733 2.015 4.123 2.015 7.168v2.201h-1.686v-2.201c0-2.764-.562-4.778-1.64-6.09-1.077-1.405-2.716-2.108-4.919-2.108-2.108 0-3.794.796-4.965 2.437-1.077 1.452-1.64 3.373-1.64 5.762 0 5.434 4.216 7.214 5.997 7.963l.796.375c1.593.609 5.294 2.108 5.294 6.746 0 4.31-2.061 6.793-5.481 6.793-1.827 0-3.186-.562-4.075-1.64-.938-1.171-1.406-2.951-1.406-5.388v-2.202h1.64v2.202c0 2.015.375 3.467 1.078 4.357.328.422 1.031 1.031 2.763 1.031 3.373 0 3.795-3.232 3.795-5.153 0-3.232-2.202-4.31-4.216-5.2l-.844-.375c-.983-.421-2.67-1.124-4.169-2.577-1.874-1.827-2.811-4.122-2.811-6.933zm16.489 15.084c0 2.67-.655 4.873-1.968 6.605-1.545 1.967-3.607 2.952-6.277 2.952-2.763 0-4.825-.891-6.23-2.67-1.359-1.64-2.014-4.029-2.014-7.121v-2.202h1.639v2.202c0 2.67.562 4.731 1.64 6.09 1.125 1.358 2.764 2.061 4.965 2.061 2.062 0 3.795-.796 4.919-2.342 1.078-1.358 1.64-3.326 1.64-5.575 0-5.387-4.31-7.167-5.95-7.776l-.75-.328c-1.733-.75-5.341-2.39-5.341-6.98 0-3.232 1.453-7.121 5.481-7.121 1.828 0 3.186.562 4.076 1.686.937 1.172 1.405 2.999 1.405 5.435v2.201h-1.687v-2.201c0-5.435-2.482-5.435-3.795-5.435-3.56 0-3.841 4.123-3.841 5.435 0 3.186 2.155 4.59 4.356 5.434l.75.328c.89.375 2.577.984 4.076 2.436 1.923 1.78 2.906 4.075 2.906 6.886zM51.799 81.571h12.648v1.64H50.159V48.686h14.288v1.687H51.799v31.198zm12.648-28.435h-9.884v10.588h9.884v1.686H52.923V51.45h11.524v1.686zm0 15.038h-9.884v10.634h9.884v1.639H52.923v-13.96h11.524v1.687zM95.271 58.289c0 3.139-.703 5.527-2.108 7.167-1.499 1.733-3.748 2.576-6.699 2.576H83.7v15.085h-1.64V66.394h4.403c4.872 0 7.121-2.53 7.121-8.104 0-5.481-2.249-8.058-7.121-8.058h-7.167v-1.64h7.167c2.952 0 5.2.843 6.699 2.577 1.406 1.592 2.109 3.98 2.109 7.12zM80.936 83.117h-1.639V51.356h1.639v31.761zm5.528-17.848h-4.403V51.356h4.403c2.108 0 3.654.515 4.591 1.592.983 1.078 1.452 2.857 1.452 5.341 0 4.919-1.78 6.98-6.043 6.98zM83.7 63.63h2.764c2.436 0 3.092-.75 3.327-1.078.703-.797 1.03-2.201 1.03-4.263 0-4.45-1.5-5.294-4.357-5.294H83.7V63.63zM113.305 72.998v10.213h-1.686V72.998c0-2.295-.656-4.122-2.015-5.481a7.098 7.098 0 0 0-1.967-1.264c2.623-.984 3.935-3.561 3.935-7.729 0-2.765-.562-4.825-1.687-6.138-1.17-1.358-2.951-2.014-5.434-2.014h-7.167v-1.687h7.167c2.952 0 5.2.89 6.699 2.624 1.359 1.592 2.062 3.982 2.062 7.214 0 3.185-.703 5.621-2.062 7.261-.14.141-.28.328-.468.469 1.687 1.64 2.623 3.888 2.623 6.745zM98.924 83.211h-1.64V51.449h1.64v31.762zm4.966-17.567h-3.841V51.449h4.403c2.108 0 3.654.562 4.591 1.64.937 1.125 1.405 2.951 1.405 5.435 0 5.06-1.732 7.12-5.996 7.12h-.562zm4.965 17.567V72.998c0-3.044-1.452-4.544-4.404-4.544H101.687v14.757h-1.64V66.769H104.45c3.888 0 6.09 2.248 6.09 6.229v10.213h-1.685zm-6.605-19.207h2.202c2.389 0 3.092-.749 3.326-1.077.703-.891 1.03-2.342 1.03-4.403 0-4.638-1.499-5.388-4.356-5.388h-2.764v10.868h.562zM131.996 58.382V73.28c0 3.092-.656 5.434-1.968 7.072-.983 1.266-2.857 2.765-6.23 2.765s-5.247-1.499-6.231-2.765c-1.312-1.639-1.967-3.98-1.967-7.072V58.382c0-3.044.656-5.387 1.967-7.073.984-1.265 2.858-2.717 6.231-2.717s5.247 1.452 6.23 2.717c1.312 1.686 1.968 4.029 1.968 7.073zm-1.64 0c0-2.67-.562-4.684-1.639-6.043-1.125-1.405-2.764-2.107-4.919-2.107s-3.795.703-4.919 2.107c-1.077 1.359-1.64 3.373-1.64 6.043V73.28c0 2.67.562 4.684 1.64 6.043 1.172 1.452 2.812 2.154 4.919 2.154s3.748-.702 4.919-2.154c1.078-1.359 1.639-3.373 1.639-6.043V58.382zm-2.529-5.34c.937 1.124 1.406 2.904 1.406 5.34V73.28c0 4.73-1.827 7.072-5.434 7.072s-5.435-2.342-5.435-7.072V58.382c0-2.436.468-4.216 1.406-5.34.843-1.124 2.201-1.686 4.029-1.686 1.826 0 3.184.562 4.028 1.686zm-.234 5.34c0-5.387-2.483-5.387-3.794-5.387-1.312 0-3.795 0-3.795 5.387V73.28c0 5.434 2.483 5.434 3.795 5.434 1.311 0 3.794 0 3.794-5.434V58.382zM150.5 58.711v14.521c0 3.14-.703 5.575-2.061 7.214-1.5 1.828-3.748 2.765-6.7 2.765h-6.886v-1.64h6.885c2.389 0 4.169-.703 5.435-2.154 1.124-1.406 1.686-3.467 1.686-6.185V58.711c0-2.718-.562-4.778-1.686-6.185-1.218-1.452-3.045-2.154-5.435-2.154H134.853v-1.687h6.886c2.952 0 5.2.937 6.7 2.811 1.358 1.64 2.061 4.076 2.061 7.215zm-14.007 21.735h-1.639V51.449h1.639v28.997zm5.246 0h-4.122V51.449h4.122c2.108 0 3.654.609 4.544 1.78.984 1.171 1.452 2.998 1.452 5.481v14.521c0 2.483-.468 4.311-1.452 5.481-.936 1.173-2.435 1.734-4.544 1.734zm-2.482-1.638h2.482c2.202 0 4.311-.422 4.311-5.575V58.711c0-5.153-2.108-5.575-4.311-5.575h-2.482v25.672zM169.144 48.686V74.03c0 2.857-.609 5.06-1.874 6.604-.937 1.266-2.717 2.577-5.856 2.577s-4.919-1.312-5.856-2.577c-1.264-1.545-1.874-3.747-1.874-6.604V48.686h1.64V74.03c0 2.483.515 4.31 1.546 5.575 1.031 1.311 2.53 1.967 4.544 1.967 2.015 0 3.56-.656 4.544-1.967 1.031-1.266 1.546-3.092 1.546-5.575V48.686h1.64zm-11.056 0V74.03c0 4.778 2.108 4.778 3.326 4.778s3.327 0 3.327-4.778V48.686h1.639V74.03c0 2.201-.422 3.841-1.265 4.919-.796.984-2.015 1.498-3.701 1.498-1.64 0-2.904-.514-3.701-1.498-.843-1.078-1.265-2.718-1.265-4.919V48.686h1.64zM180.48 50.372h-8.292v-1.687h17.662v1.687h-9.37zm0 32.839h-1.687V53.136h-6.606v-1.687h8.292v31.762zm1.078-31.762h8.292v1.687h-6.605v30.075h-1.686V51.449zM207.744 58.382V73.28c0 3.092-.656 5.434-1.967 7.072-.984 1.266-2.858 2.765-6.23 2.765-3.373 0-5.247-1.499-6.231-2.765-1.312-1.639-1.967-3.98-1.967-7.072V58.382c0-3.044.656-5.387 1.967-7.073.984-1.265 2.858-2.717 6.231-2.717 3.373 0 5.247 1.452 6.23 2.717 1.311 1.686 1.967 4.029 1.967 7.073zm-1.64 0c0-2.67-.562-4.684-1.64-6.043-1.125-1.405-2.764-2.107-4.918-2.107-2.155 0-3.795.703-4.919 2.107-1.077 1.359-1.639 3.373-1.639 6.043V73.28c0 2.67.562 4.684 1.639 6.043 1.171 1.452 2.811 2.154 4.919 2.154 2.108 0 3.748-.702 4.918-2.154 1.078-1.359 1.64-3.373 1.64-6.043V58.382zm-2.529-5.34c.936 1.124 1.405 2.904 1.405 5.34V73.28c0 4.73-1.827 7.072-5.434 7.072s-5.435-2.342-5.435-7.072V58.382c0-2.436.469-4.216 1.406-5.34.843-1.124 2.202-1.686 4.029-1.686s3.185.562 4.029 1.686zm-.235 5.34c0-5.387-2.482-5.387-3.794-5.387-1.312 0-3.795 0-3.795 5.387V73.28c0 5.434 2.483 5.434 3.795 5.434 1.312 0 3.794 0 3.794-5.434V58.382zM210.601 58.569c0-5.855 3.326-9.884 8.245-9.884 3.373 0 5.247 1.452 6.23 2.717 1.359 1.733 2.014 4.122 2.014 7.167v2.202h-1.686v-2.202c0-2.764-.562-4.777-1.64-6.09-1.078-1.405-2.717-2.107-4.919-2.107-2.108 0-3.794.796-4.966 2.436-1.077 1.453-1.639 3.373-1.639 5.762 0 5.435 4.216 7.215 5.996 7.965l.797.375c1.593.607 5.293 2.107 5.293 6.745 0 4.31-2.061 6.792-5.481 6.792-1.827 0-3.186-.562-4.076-1.639-.937-1.171-1.405-2.951-1.405-5.387v-2.203h1.64v2.203c0 2.014.375 3.466 1.077 4.355.328.422 1.031 1.031 2.764 1.031 3.373 0 3.794-3.232 3.794-5.153 0-3.231-2.201-4.31-4.216-5.2l-.843-.375c-.984-.421-2.671-1.124-4.17-2.576-1.872-1.826-2.809-4.122-2.809-6.934zm16.489 15.085c0 2.671-.655 4.872-1.968 6.605-1.545 1.968-3.606 2.951-6.277 2.951-2.764 0-4.825-.89-6.23-2.67-1.359-1.64-2.015-4.028-2.015-7.12v-2.203h1.64v2.203c0 2.67.562 4.73 1.639 6.09 1.125 1.357 2.764 2.061 4.966 2.061 2.062 0 3.794-.796 4.919-2.342 1.077-1.359 1.64-3.326 1.64-5.575 0-5.388-4.31-7.167-5.95-7.776l-.749-.328c-1.733-.749-5.341-2.389-5.341-6.98 0-3.231 1.452-7.12 5.481-7.12 1.827 0 3.186.562 4.075 1.687.938 1.172 1.406 2.998 1.406 5.434v2.202h-1.687v-2.202c0-5.434-2.483-5.434-3.794-5.434-3.56 0-3.841 4.123-3.841 5.434 0 3.186 2.155 4.592 4.356 5.435l.75.328c.89.375 2.576.983 4.076 2.437 1.921 1.777 2.904 4.073 2.904 6.883zM64.869 109.024v-2.201c0-2.671-.516-4.732-1.593-6.09-1.124-1.359-2.764-2.061-4.919-2.061s-3.794.701-4.919 2.061c-1.077 1.451-1.64 3.467-1.64 6.09v14.85c0 6.793 3.561 8.198 6.559 8.198 2.951 0 6.512-1.405 6.512-8.198v-2.248h1.687v2.248c0 3.045-.656 5.387-2.015 7.074-.984 1.266-2.811 2.764-6.184 2.764s-5.247-1.498-6.23-2.764c-1.312-1.64-1.968-3.982-1.968-7.074v-14.85c0-3.046.656-5.435 1.968-7.074.984-1.265 2.857-2.764 6.23-2.764s5.2 1.499 6.184 2.764c1.358 1.687 2.015 4.028 2.015 7.074v2.201h-1.687zm-1.077-2.201v2.201h-1.686v-2.201c0-5.388-2.437-5.388-3.748-5.388-1.312 0-3.794 0-3.794 5.388v14.85c0 2.016.375 3.467 1.078 4.356.327.517 1.031 1.078 2.717 1.078 1.687 0 2.342-.562 2.717-1.078.702-.89 1.031-2.341 1.031-4.356v-2.248h1.686v2.248c0 4.731-1.827 7.074-5.434 7.074s-5.434-2.343-5.434-7.074v-14.85c0-4.732 1.827-7.074 5.434-7.074s5.433 2.342 5.433 7.074zM85.34 121.298v10.213h-1.686v-10.213c0-2.295-.656-4.122-2.014-5.48a7.046 7.046 0 0 0-1.968-1.265c2.624-.984 3.936-3.561 3.936-7.729 0-2.764-.562-4.825-1.687-6.137-1.171-1.359-2.951-2.014-5.435-2.014H69.32v-1.688h7.167c2.952 0 5.2.889 6.7 2.623 1.358 1.594 2.061 3.982 2.061 7.215 0 3.185-.703 5.621-2.061 7.261-.141.141-.281.327-.469.469 1.685 1.639 2.622 3.887 2.622 6.745zm-14.382 10.213h-1.639V99.749h1.639v31.762zm4.966-17.568h-3.841V99.749h4.403c2.108 0 3.654.562 4.591 1.64.937 1.124 1.405 2.951 1.405 5.435 0 5.059-1.733 7.12-5.996 7.12h-.562zm4.966 17.568v-10.213c0-3.045-1.452-4.543-4.404-4.543h-2.763v14.756h-1.64v-16.443H76.486c3.889 0 6.09 2.249 6.09 6.23v10.213H80.89zm-6.605-19.207h2.201c2.39 0 3.092-.749 3.327-1.076.703-.893 1.03-2.344 1.03-4.404 0-4.639-1.499-5.388-4.357-5.388h-2.764v10.868h.563zM90.679 96.938v34.525H89.04V96.938h1.639zm1.125 0h1.64v34.525h-1.64V96.938zM109.09 96.985l8.01 34.525h-1.733l-7.542-32.559h-1.03l-7.542 32.559h-1.687l8.011-34.525h3.513zM103 120.222h8.62l2.623 11.289h-1.687l-2.248-9.604h-5.997l-2.202 9.604h-1.733L103 120.222zm.234-1.078l4.075-17.473 4.029 17.473h-8.104zm6.043-1.687l-1.968-8.433-1.967 8.433h3.935zM122.675 98.673h-8.292v-1.688h17.662v1.688h-9.37zm0 32.838h-1.687v-30.075h-6.605v-1.687h8.292v31.762zm1.077-31.762h8.292v1.687h-6.605v30.075h-1.687V99.749zM137.711 96.938v34.525h-1.64V96.938h1.64zm1.124 0h1.64v34.525h-1.64V96.938zM163.101 96.985h1.733l-8.667 34.525H152.701l-8.573-34.525h1.64l8.198 32.699h.937l8.198-32.699zm-1.172 0l-7.495 30.028-7.496-30.028h1.734l5.762 23.188 5.856-23.188h1.639zM182.12 106.683v14.896c0 3.092-.656 5.435-1.968 7.074-.983 1.266-2.857 2.764-6.23 2.764-3.374 0-5.247-1.498-6.231-2.764-1.312-1.64-1.968-3.982-1.968-7.074v-14.896c0-3.047.656-5.388 1.968-7.074.984-1.266 2.857-2.717 6.231-2.717 3.373 0 5.247 1.451 6.23 2.717 1.312 1.686 1.968 4.027 1.968 7.074zm-1.64 0c0-2.67-.562-4.685-1.64-6.045-1.125-1.404-2.764-2.105-4.918-2.105-2.155 0-3.795.701-4.919 2.105-1.077 1.36-1.64 3.375-1.64 6.045v14.896c0 2.671.562 4.684 1.64 6.043 1.171 1.453 2.811 2.155 4.919 2.155 2.108 0 3.747-.702 4.918-2.155 1.078-1.359 1.64-3.372 1.64-6.043v-14.896zm-2.53-5.342c.938 1.126 1.406 2.905 1.406 5.342v14.896c0 4.732-1.827 7.074-5.434 7.074-3.608 0-5.435-2.342-5.435-7.074v-14.896c0-2.437.469-4.216 1.406-5.342.843-1.123 2.202-1.686 4.029-1.686s3.185.563 4.028 1.686zm-.234 5.342c0-5.388-2.483-5.388-3.794-5.388-1.312 0-3.795 0-3.795 5.388v14.896c0 5.435 2.483 5.435 3.795 5.435 1.311 0 3.794 0 3.794-5.435v-14.896zM184.977 106.869c0-5.855 3.326-9.884 8.245-9.884 3.374 0 5.247 1.453 6.231 2.717 1.358 1.733 2.015 4.123 2.015 7.167v2.202h-1.688v-2.202c0-2.764-.562-4.778-1.639-6.09-1.078-1.405-2.717-2.106-4.919-2.106-2.108 0-3.793.796-4.966 2.434-1.077 1.453-1.639 3.374-1.639 5.763 0 5.435 4.216 7.215 5.996 7.964l.797.375c1.593.609 5.293 2.108 5.293 6.746 0 4.309-2.062 6.793-5.481 6.793-1.827 0-3.185-.562-4.076-1.64-.937-1.172-1.405-2.95-1.405-5.388v-2.201h1.64v2.201c0 2.015.375 3.467 1.078 4.357.328.421 1.03 1.03 2.764 1.03 3.374 0 3.794-3.233 3.794-5.153 0-3.231-2.202-4.311-4.215-5.199l-.843-.375c-.984-.422-2.671-1.125-4.17-2.577-1.875-1.827-2.812-4.122-2.812-6.934zm16.49 15.085c0 2.67-.656 4.871-1.968 6.605-1.546 1.967-3.607 2.951-6.278 2.951-2.764 0-4.825-.891-6.23-2.67-1.358-1.641-2.014-4.029-2.014-7.121v-2.201h1.64v2.201c0 2.67.562 4.732 1.639 6.09 1.125 1.359 2.765 2.062 4.966 2.062 2.061 0 3.794-.796 4.919-2.343 1.078-1.358 1.639-3.326 1.639-5.574 0-5.389-4.309-7.167-5.949-7.777l-.75-.327c-1.733-.75-5.341-2.389-5.341-6.98 0-3.233 1.453-7.12 5.481-7.12 1.827 0 3.186.562 4.076 1.687.937 1.171 1.405 2.999 1.405 5.434v2.202h-1.687v-2.202c0-5.434-2.483-5.434-3.794-5.434-3.56 0-3.841 4.122-3.841 5.434 0 3.187 2.155 4.592 4.356 5.435l.75.328c.89.375 2.576.984 4.076 2.436 1.921 1.779 2.905 4.074 2.905 6.884z"/></g><path fill="#F68D2E" d="M.361 103.04L34.015.209v131.892z"/></svg>