
<svg xmlns="http://www.w3.org/2000/svg" viewBox="0 0 317.3 81.04">
	
<polygon fill="#F79930" points="0 62.96 20.6 0.01 20.6 80.75 0 62.96"/>
<path fill="#F79930" d="M39.27.28h8q4.2,0,6.1,2.28c1.26,1.52,1.9,3.75,1.9,6.68a8.72,8.72,0,0,1-2,6.16,7.67,7.67,0,0,1-5.92,2.2H43.79V32.68H39.27Zm6.6,14.08a8.75,8.75,0,0,0,3.1-.44,2.81,2.81,0,0,0,1.58-1.52A8,8,0,0,0,51,9.28a13.35,13.35,0,0,0-.36-3.64A2.56,2.56,0,0,0,49.25,4a8.62,8.62,0,0,0-3.34-.48H43.79V14.36Z"/>
<path fill="#F79930" d="M58.47.28H65c3.28,0,5.68.67,7.22,2s2.3,3.54,2.3,6.58c0,4.16-1.34,6.68-4,7.56l4.6,16.24H70.75l-4.24-15.2H63v15.2H58.47Zm6.24,14a6.12,6.12,0,0,0,4.18-1.16q1.26-1.15,1.26-4.2a9.08,9.08,0,0,0-.44-3.14,3.06,3.06,0,0,0-1.56-1.68A7.45,7.45,0,0,0,65,3.52H63V14.24Z"/>
<path fill="#F79930" d="M80.69,30.34c-1.38-1.8-2.06-4.41-2.06-7.82V10.24q0-5,2.08-7.64T87.51,0q4.71,0,6.78,2.62t2.06,7.62V22.56c0,3.36-.7,6-2.08,7.76S90.63,33,87.51,33,82.06,32.14,80.69,30.34ZM90.91,28a9.06,9.06,0,0,0,.88-4.48V9.32a8.6,8.6,0,0,0-.88-4.38c-.59-1-1.72-1.42-3.4-1.42S84.65,4,84.07,4.94a8.5,8.5,0,0,0-.88,4.38v14.2A9,9,0,0,0,84.07,28c.58,1,1.73,1.48,3.44,1.48S90.32,29,90.91,28Z"/>
<path fill="#F79930" d="M102.15,30.18q-2-2.87-2-7.9V10.84q0-5.32,1.92-8.08C103.39.92,105.65,0,108.91,0q4.35,0,6.26,2.36c1.26,1.57,1.9,3.89,1.9,7v2.56h-4.28V9.6a22.83,22.83,0,0,0-.2-3.44,3.22,3.22,0,0,0-1-1.92A3.92,3.92,0,0,0,109,3.52a4.09,4.09,0,0,0-2.74.78A3.7,3.7,0,0,0,105,6.46a19.11,19.11,0,0,0-.28,3.7V23a14.62,14.62,0,0,0,.4,3.88,3.39,3.39,0,0,0,1.3,2,4.46,4.46,0,0,0,2.5.6,3.71,3.71,0,0,0,2.56-.76,3.5,3.5,0,0,0,1.06-2.08,23.87,23.87,0,0,0,.22-3.6v-2.4h4.28V23q0,4.84-1.82,7.42T108.91,33C105.71,33,103.45,32.09,102.15,30.18Z"/>
<path fill="#F79930" d="M121.39.28H134V3.64h-8V14.36h6.52v3.2h-6.52V29.44H134v3.24H121.39Z"/>
<path fill="#F79930" d="M139.09,30.52a11.34,11.34,0,0,1-2.38-6.92l4-1.08a12.43,12.43,0,0,0,1.22,5,3.52,3.52,0,0,0,3.38,1.92,3.45,3.45,0,0,0,2.66-1,4,4,0,0,0,.9-2.82,6.08,6.08,0,0,0-.84-3.32,14.52,14.52,0,0,0-2.68-2.92l-5.44-4.8a8.94,8.94,0,0,1-2.38-3.1,9.85,9.85,0,0,1-.74-4.06,7.31,7.31,0,0,1,2-5.52A9.07,9.07,0,0,1,150.19,2q2,2,2.36,6.32l-3.84,1A10.35,10.35,0,0,0,147.61,5a3.41,3.41,0,0,0-3.22-1.54,3.61,3.61,0,0,0-2.64.9A3.54,3.54,0,0,0,140.83,7a5.46,5.46,0,0,0,.48,2.42,6.46,6.46,0,0,0,1.64,2l5.48,4.8a16.25,16.25,0,0,1,3.38,4.08,9.88,9.88,0,0,1,1.26,5A7.47,7.47,0,0,1,150.91,31a8.77,8.77,0,0,1-11.82-.44Z"/>
<path fill="#F79930" d="M158,30.52a11.34,11.34,0,0,1-2.38-6.92l4-1.08a12.43,12.43,0,0,0,1.22,5,3.52,3.52,0,0,0,3.38,1.92,3.45,3.45,0,0,0,2.66-1,4,4,0,0,0,.9-2.82,6.08,6.08,0,0,0-.84-3.32,14.52,14.52,0,0,0-2.68-2.92l-5.44-4.8a8.94,8.94,0,0,1-2.38-3.1,9.85,9.85,0,0,1-.74-4.06,7.31,7.31,0,0,1,2-5.52A9.07,9.07,0,0,1,169.11,2q1.95,2,2.36,6.32l-3.84,1A10.35,10.35,0,0,0,166.53,5a3.41,3.41,0,0,0-3.22-1.54,3.61,3.61,0,0,0-2.64.9A3.54,3.54,0,0,0,159.75,7a5.46,5.46,0,0,0,.48,2.42,6.46,6.46,0,0,0,1.64,2l5.48,4.8a16.25,16.25,0,0,1,3.38,4.08,9.88,9.88,0,0,1,1.26,5A7.47,7.47,0,0,1,169.83,31,8.77,8.77,0,0,1,158,30.52Z"/>
<path fill="#F79930" d="M177,30.34c-1.38-1.8-2.06-4.41-2.06-7.82V10.24q0-5,2.08-7.64t6.8-2.6q4.71,0,6.78,2.62t2.06,7.62V22.56c0,3.36-.7,6-2.08,7.76S186.91,33,183.79,33,178.34,32.14,177,30.34ZM187.19,28a9.06,9.06,0,0,0,.88-4.48V9.32a8.6,8.6,0,0,0-.88-4.38c-.59-1-1.72-1.42-3.4-1.42s-2.86.47-3.44,1.42a8.5,8.5,0,0,0-.88,4.38v14.2a9,9,0,0,0,.88,4.48c.58,1,1.73,1.48,3.44,1.48S186.6,29,187.19,28Z"/>
<path fill="#F79930" d="M198.49,30.52a11.34,11.34,0,0,1-2.38-6.92l4-1.08a12.43,12.43,0,0,0,1.22,5,3.52,3.52,0,0,0,3.38,1.92,3.45,3.45,0,0,0,2.66-1,4.06,4.06,0,0,0,.9-2.82,6.08,6.08,0,0,0-.84-3.32,14.52,14.52,0,0,0-2.68-2.92l-5.45-4.8a9,9,0,0,1-2.37-3.1,9.85,9.85,0,0,1-.74-4.06,7.31,7.31,0,0,1,2-5.52A9.07,9.07,0,0,1,209.59,2q1.95,2,2.36,6.32l-3.84,1A10.35,10.35,0,0,0,207,5a3.41,3.41,0,0,0-3.22-1.54,3.61,3.61,0,0,0-2.64.9A3.54,3.54,0,0,0,200.23,7a5.33,5.33,0,0,0,.48,2.42,6.46,6.46,0,0,0,1.64,2l5.48,4.8a16.25,16.25,0,0,1,3.38,4.08,10,10,0,0,1,1.25,5A7.44,7.44,0,0,1,210.3,31a8.75,8.75,0,0,1-11.81-.44Z"/>
<path fill="#F79930" d="M40.63,78.18q-2-2.87-2-7.9V58.84q0-5.33,1.92-8.08c1.28-1.84,3.54-2.76,6.8-2.76q4.35,0,6.26,2.36c1.26,1.57,1.9,3.89,1.9,7v2.56H51.27V57.6a22.83,22.83,0,0,0-.2-3.44,3.22,3.22,0,0,0-1-1.92,3.92,3.92,0,0,0-2.62-.72,4.09,4.09,0,0,0-2.74.78,3.7,3.7,0,0,0-1.18,2.16,19.11,19.11,0,0,0-.28,3.7V71a14.62,14.62,0,0,0,.4,3.88,3.39,3.39,0,0,0,1.3,2,4.46,4.46,0,0,0,2.5.6A3.71,3.71,0,0,0,50,76.72a3.5,3.5,0,0,0,1.06-2.08,23.87,23.87,0,0,0,.22-3.6v-2.4h4.28V71q0,4.84-1.82,7.42T47.39,81C44.19,81,41.93,80.09,40.63,78.18Z"/>
<path fill="#F79930" d="M61.33,78.34c-1.38-1.8-2.06-4.41-2.06-7.82V58.24q0-5,2.08-7.64t6.8-2.6q4.71,0,6.78,2.62T77,58.24V70.56c0,3.36-.7,6-2.08,7.76S71.27,81,68.15,81,62.7,80.14,61.33,78.34ZM71.55,76a9.06,9.06,0,0,0,.88-4.48V57.32a8.6,8.6,0,0,0-.88-4.38c-.59-.95-1.72-1.42-3.4-1.42s-2.86.47-3.44,1.42a8.5,8.5,0,0,0-.88,4.38v14.2A9,9,0,0,0,64.71,76c.58,1,1.73,1.48,3.44,1.48S71,77,71.55,76Z"/>
<path fill="#F79930" d="M81.43,48.28h3.08l9.2,21.52V48.28h3.76v32.4H94.59L85.27,58.56V80.68H81.43Z"/>
<path fill="#F79930" d="M106.11,51.64h-5.48V48.28H116v3.36h-5.32v29h-4.52Z"/>
<path fill="#F79930" d="M119.07,48.28h12.56v3.36h-8V62.36h6.52v3.2h-6.52V77.44h8.12v3.24H119.07Z"/>
<path fill="#F79930" d="M135.87,48.28h4.44L146,74.56l5.76-26.28h4.4l.6,32.4h-3.64l-.36-23.52-5.48,23.52h-2.56l-5.44-23.52L139,80.68h-3.68Z"/>
<path fill="#F79930" d="M161.75,48.28h8q4.2,0,6.1,2.28c1.26,1.52,1.9,3.75,1.9,6.68a8.72,8.72,0,0,1-2,6.16,7.67,7.67,0,0,1-5.92,2.2h-3.56V80.68h-4.52Zm6.6,14.08a8.75,8.75,0,0,0,3.1-.44A2.81,2.81,0,0,0,173,60.4a8,8,0,0,0,.48-3.12,13.35,13.35,0,0,0-.36-3.64A2.56,2.56,0,0,0,171.73,52a8.62,8.62,0,0,0-3.34-.48h-2.12V62.36Z"/>
<path fill="#F79930" d="M182.41,78.34c-1.38-1.8-2.06-4.41-2.06-7.82V58.24q0-5,2.08-7.64t6.8-2.6q4.71,0,6.78,2.62t2.06,7.62V70.56c0,3.36-.7,6-2.08,7.76S192.35,81,189.23,81,183.78,80.14,182.41,78.34ZM192.63,76a9.06,9.06,0,0,0,.88-4.48V57.32a8.6,8.6,0,0,0-.88-4.38c-.59-.95-1.72-1.42-3.4-1.42s-2.86.47-3.44,1.42a8.5,8.5,0,0,0-.88,4.38v14.2a9,9,0,0,0,.88,4.48c.58,1,1.73,1.48,3.44,1.48S192,77,192.63,76Z"/>
<path fill="#F79930" d="M202.51,48.28H209q4.91,0,7.22,2t2.29,6.58q0,6.24-4,7.56l4.61,16.24h-4.36l-4.25-15.2H207v15.2h-4.52Zm6.24,14a6.12,6.12,0,0,0,4.18-1.16q1.26-1.15,1.26-4.2a9.08,9.08,0,0,0-.44-3.14,3.06,3.06,0,0,0-1.56-1.68,7.49,7.49,0,0,0-3.16-.54h-2V62.24Z"/>
<path fill="#F79930" d="M228.39,48.28h4.36l6.92,32.4h-4.28l-1.48-8.16h-6.6l-1.56,8.16h-4.24Zm0-9.28h4.36l3.48,7H233l-2.45-4.84L228.15,46H225Zm4.92,30.28-2.72-14.6-2.68,14.6Z"/>
<path fill="#F79930" d="M243,48.28H246l9.19,21.52V48.28H259v32.4h-2.87l-9.32-22.12V80.68H243Z"/>
<path fill="#F79930" d="M264.06,48.28h12.57v3.36h-8.05V62.36h6.53v3.2h-6.53V77.44h8.13v3.24H264.06Z"/>
<path fill="#F79930" d="M281.8,78.34q-2.06-2.7-2.06-7.82V58.24c0-3.36.7-5.91,2.08-7.64s3.66-2.6,6.81-2.6,5.4.87,6.77,2.62,2.06,4.29,2.06,7.62V70.56q0,5-2.08,7.76C294,80.13,291.74,81,288.63,81S283.18,80.14,281.8,78.34ZM292,76a9.07,9.07,0,0,0,.87-4.48V57.32a8.62,8.62,0,0,0-.87-4.38c-.59-.95-1.73-1.42-3.4-1.42s-2.86.47-3.45,1.42a8.6,8.6,0,0,0-.88,4.38v14.2a9.06,9.06,0,0,0,.88,4.48c.59,1,1.74,1.48,3.45,1.48S291.44,77,292,76Z"/>
<path fill="#F79930" d="M303.32,78.52a11.4,11.4,0,0,1-2.38-6.92l4-1.08a12.6,12.6,0,0,0,1.22,5,3.53,3.53,0,0,0,3.38,1.92,3.44,3.44,0,0,0,2.66-1,4,4,0,0,0,.9-2.82,6.08,6.08,0,0,0-.84-3.32,14.23,14.23,0,0,0-2.68-2.92l-5.44-4.8a9.19,9.19,0,0,1-2.38-3.1,10,10,0,0,1-.74-4.06,7.31,7.31,0,0,1,2-5.52,9.07,9.07,0,0,1,11.36.08q2,2,2.36,6.32l-3.84,1a10.2,10.2,0,0,0-1.1-4.38,3.4,3.4,0,0,0-3.21-1.54,3.65,3.65,0,0,0-2.65.9,3.58,3.58,0,0,0-.92,2.66,5.46,5.46,0,0,0,.48,2.42,6.61,6.61,0,0,0,1.64,2l5.48,4.8A16,16,0,0,1,316,68.32a9.88,9.88,0,0,1,1.26,5A7.47,7.47,0,0,1,315.14,79a8.77,8.77,0,0,1-11.82-.44Z"/>
</svg>