
<svg xmlns="http://www.w3.org/2000/svg" viewBox="0 0 357.49 86.6">
	
<polygon fill="#f68e2f" points="0 67.52 22.1 0 22.1 86.6 0 67.52"/>
<path fill="#f68e2f" d="M44.46,19.8V34.56H40.14V.66h7c5.75,0,8.65,3.45,8.65,9.52S53,19.8,47.18,19.8ZM44.46,5V15.42h2.72A4.83,4.83,0,0,0,49.61,15a6.67,6.67,0,0,0,.83-.64c.69-.69,1-2.12,1-4.19S51.09,6.68,50.4,6A4.29,4.29,0,0,0,47.18,5Z"/>
<path fill="#f68e2f" d="M73.54,34.56H69.16v-10c0-3-1.42-4.46-4.32-4.46H62.13V34.56H57.8V.66h7c5.84,0,8.6,3.36,8.6,9.66,0,3.13-.69,5.52-2,7.13a.88.88,0,0,0-.18.23,1.78,1.78,0,0,1-.28.23,8.89,8.89,0,0,1,2.58,6.62ZM62.13,15.7h2.71a5.24,5.24,0,0,0,2.44-.41,6.3,6.3,0,0,0,.83-.65c.69-.87,1-2.3,1-4.32,0-2.26-.37-3.59-1.06-4.37A4.28,4.28,0,0,0,64.84,5H62.13Z"/>
<path fill="#f68e2f" d="M77,10.32a11.15,11.15,0,0,1,1.94-7,7.45,7.45,0,0,1,2.2-1.8A8.47,8.47,0,0,1,85,.66a7.28,7.28,0,0,1,6.12,2.67,11.15,11.15,0,0,1,1.94,7V24.9a11.15,11.15,0,0,1-1.94,7A7.28,7.28,0,0,1,85,34.56a7.35,7.35,0,0,1-6.11-2.67,11.15,11.15,0,0,1-1.94-7ZM81.31,24.9c0,2.72.6,4,1.38,4.65a3.46,3.46,0,0,0,2.34.69,3.62,3.62,0,0,0,2.35-.69c.78-.65,1.38-1.93,1.38-4.65V10.32c0-2.62-.6-4-1.38-4.65A3.54,3.54,0,0,0,85,5a3.4,3.4,0,0,0-2.34.64c-.78.65-1.38,2-1.38,4.65Z"/>
<path fill="#f68e2f" d="M95.61,10.36a11.17,11.17,0,0,1,1.94-7,8.29,8.29,0,0,1,12.19,0,11,11,0,0,1,2,7v2.17h-4.38V10.36c0-2.62-.59-4-1.33-4.69A3.54,3.54,0,0,0,103.66,5a3.4,3.4,0,0,0-2.34.64c-.78.65-1.38,2.07-1.38,4.69V24.9A7.13,7.13,0,0,0,101,29.23a2.11,2.11,0,0,0,.82.69,3.86,3.86,0,0,0,1.84.36,3.16,3.16,0,0,0,2.67-1.05,7.24,7.24,0,0,0,1-4.33V22.74h4.38V24.9a11,11,0,0,1-2,7,7.22,7.22,0,0,1-6.08,2.72,8,8,0,0,1-3.91-.92,6.88,6.88,0,0,1-2.2-1.8,11.15,11.15,0,0,1-1.94-7Z"/>
<path fill="#f68e2f" d="M127.49.7V5h-9.71V15.47h9.71V19.8h-9.71V30.28h9.71v4.33h-14V.7Z"/>
<path fill="#f68e2f" d="M130.57,22.79h4.33V25a7,7,0,0,0,1,4.28,2.2,2.2,0,0,0,.83.64,3.9,3.9,0,0,0,1.89.37,3.32,3.32,0,0,0,3.13-1.84,7.6,7.6,0,0,0,.6-3.22,4.6,4.6,0,0,0-1.34-3.45,9.69,9.69,0,0,0-2.8-1.66l-.83-.37a12.61,12.61,0,0,1-4.1-2.53,9.08,9.08,0,0,1-2.76-6.81,10.54,10.54,0,0,1,2.26-7A7.54,7.54,0,0,1,138.67.66a7.31,7.31,0,0,1,6.12,2.67,11.13,11.13,0,0,1,2,7v2.17H142.4V10.36c0-2.62-.6-4-1.38-4.69A3.55,3.55,0,0,0,138.67,5a3.18,3.18,0,0,0-3.18,2.16,8,8,0,0,0-.59,3.17,4.8,4.8,0,0,0,1.33,3.5,7.72,7.72,0,0,0,2.94,1.84l.74.32a11.76,11.76,0,0,1,4,2.4,8.8,8.8,0,0,1,2.86,6.76c0,5.2-2.9,9.38-8.1,9.38-5.38,0-8.1-3.54-8.1-9.61Z"/>
<path fill="#f68e2f" d="M148.83,22.79h4.33V25a7,7,0,0,0,1.06,4.28,2.07,2.07,0,0,0,.82.64,3.93,3.93,0,0,0,1.89.37,3.31,3.31,0,0,0,3.13-1.84,7.6,7.6,0,0,0,.6-3.22,4.6,4.6,0,0,0-1.34-3.45,9.69,9.69,0,0,0-2.8-1.66l-.83-.37a12.71,12.71,0,0,1-4.1-2.53,9.08,9.08,0,0,1-2.76-6.81,10.59,10.59,0,0,1,2.26-7A7.54,7.54,0,0,1,156.93.66a7.31,7.31,0,0,1,6.12,2.67,11.13,11.13,0,0,1,2,7v2.17h-4.37V10.36c0-2.62-.6-4-1.38-4.69A3.55,3.55,0,0,0,156.93,5a3.16,3.16,0,0,0-3.17,2.16,7.82,7.82,0,0,0-.6,3.17,4.8,4.8,0,0,0,1.33,3.5,7.69,7.69,0,0,0,2.95,1.84l.73.32a11.76,11.76,0,0,1,4,2.4A8.8,8.8,0,0,1,165,25.18c0,5.2-2.9,9.38-8.1,9.38-5.38,0-8.1-3.54-8.1-9.61Z"/>
<path fill="#f68e2f" d="M167.09,10.32a11.15,11.15,0,0,1,1.94-7,7.38,7.38,0,0,1,2.21-1.8,8.41,8.41,0,0,1,3.91-.87,7.28,7.28,0,0,1,6.11,2.67,11.15,11.15,0,0,1,1.94,7V24.9a11.15,11.15,0,0,1-1.94,7,7.28,7.28,0,0,1-6.11,2.67A7.36,7.36,0,0,1,169,31.89a11.15,11.15,0,0,1-1.94-7Zm4.33,14.58c0,2.72.6,4,1.38,4.65a3.49,3.49,0,0,0,2.35.69,3.61,3.61,0,0,0,2.34-.69c.78-.65,1.38-1.93,1.38-4.65V10.32c0-2.62-.6-4-1.38-4.65A3.53,3.53,0,0,0,175.15,5a3.42,3.42,0,0,0-2.35.64c-.78.65-1.38,2-1.38,4.65Z"/>
<path fill="#f68e2f" d="M185.72,22.79h4.33V25a7,7,0,0,0,1.06,4.28,2.12,2.12,0,0,0,.83.64,3.85,3.85,0,0,0,1.88.37A3.31,3.31,0,0,0,197,28.4a7.45,7.45,0,0,0,.6-3.22,4.56,4.56,0,0,0-1.34-3.45,9.69,9.69,0,0,0-2.8-1.66l-.83-.37a12.59,12.59,0,0,1-4.09-2.53,9.05,9.05,0,0,1-2.77-6.81,10.59,10.59,0,0,1,2.26-7A7.56,7.56,0,0,1,193.82.66a7.31,7.31,0,0,1,6.12,2.67,11.13,11.13,0,0,1,2,7v2.17h-4.37V10.36c0-2.62-.6-4-1.38-4.69A3.54,3.54,0,0,0,193.82,5a3.16,3.16,0,0,0-3.17,2.16,8,8,0,0,0-.6,3.17,4.8,4.8,0,0,0,1.33,3.5,7.76,7.76,0,0,0,3,1.84l.73.32a11.87,11.87,0,0,1,4,2.4,8.82,8.82,0,0,1,2.85,6.76c0,5.2-2.9,9.38-8.1,9.38-5.38,0-8.1-3.54-8.1-9.61Z"/>
<path fill="#f68e2f" d="M232.19.7V5h-9.71V15.47h9.71V19.8h-9.71V30.28h9.71v4.33h-14V.7Z"/>
<path fill="#f68e2f" d="M44.46,67.8V82.56H40.14V48.66h7c5.75,0,8.65,3.45,8.65,9.52S53,67.8,47.18,67.8Zm0-14.77V63.42h2.72A4.83,4.83,0,0,0,49.61,63a6.67,6.67,0,0,0,.83-.64c.69-.69,1-2.12,1-4.19s-.37-3.5-1.06-4.23A4.29,4.29,0,0,0,47.18,53Z"/>
<path fill="#f68e2f" d="M73.54,82.56H69.16v-10c0-3-1.42-4.46-4.32-4.46H62.13V82.56H57.8V48.66h7c5.84,0,8.6,3.36,8.6,9.66,0,3.13-.69,5.52-2,7.13a.88.88,0,0,0-.18.23,1.78,1.78,0,0,1-.28.23,8.89,8.89,0,0,1,2.58,6.62ZM62.13,63.7h2.71a5.24,5.24,0,0,0,2.44-.41,6.3,6.3,0,0,0,.83-.65c.69-.87,1-2.3,1-4.32,0-2.26-.37-3.59-1.06-4.37A4.28,4.28,0,0,0,64.84,53H62.13Z"/>
<path fill="#f68e2f" d="M77,58.32a11.15,11.15,0,0,1,1.94-7,7.45,7.45,0,0,1,2.2-1.8A8.47,8.47,0,0,1,85,48.66a7.28,7.28,0,0,1,6.12,2.67,11.15,11.15,0,0,1,1.94,7V72.9a11.15,11.15,0,0,1-1.94,7A7.28,7.28,0,0,1,85,82.56a7.35,7.35,0,0,1-6.11-2.67,11.15,11.15,0,0,1-1.94-7ZM81.31,72.9c0,2.72.6,4,1.38,4.65a3.46,3.46,0,0,0,2.34.69,3.62,3.62,0,0,0,2.35-.69c.78-.65,1.38-1.93,1.38-4.65V58.32c0-2.62-.6-4-1.38-4.65A3.54,3.54,0,0,0,85,53a3.4,3.4,0,0,0-2.34.64c-.78.65-1.38,2-1.38,4.65Z"/>
<path fill="#f68e2f" d="M95.61,82.61V48.7h6.77c5.84,0,8.6,3.59,8.6,9.8V72.76c0,6.21-2.76,9.85-8.6,9.85ZM99.94,53V78.28h2.44a4.06,4.06,0,0,0,2.94-.87c.74-.74,1.29-2.12,1.29-4.65V58.5c0-2.53-.55-3.91-1.29-4.64a4,4,0,0,0-2.94-.83Z"/>
<path fill="#f68e2f" d="M113.64,48.66H118V73.55c0,2.34.51,3.54,1.2,4.09a3.87,3.87,0,0,0,4.14,0c.69-.55,1.19-1.75,1.19-4.09V48.66h4.33V73.55c0,2.8-.6,5-1.84,6.48a7.8,7.8,0,0,1-11.5,0c-1.25-1.52-1.85-3.68-1.85-6.48Z"/>
<path fill="#f68e2f" d="M132.27,48.66h19.19V53h-7.41V82.56h-4.37V53h-7.41Z"/>
<path fill="#f68e2f" d="M153.48,58.32c0-3,.64-5.34,1.93-7a7.64,7.64,0,0,1,2.21-1.8,8.44,8.44,0,0,1,3.91-.87,7.31,7.31,0,0,1,6.12,2.67c1.29,1.65,1.93,4,1.93,7V72.9c0,3-.64,5.34-1.93,7a7.31,7.31,0,0,1-6.12,2.67,7.39,7.39,0,0,1-6.12-2.67c-1.29-1.65-1.93-4-1.93-7Zm4.33,14.58c0,2.72.59,4,1.38,4.65a3.46,3.46,0,0,0,2.34.69,3.62,3.62,0,0,0,2.35-.69c.78-.65,1.38-1.93,1.38-4.65V58.32c0-2.62-.6-4-1.38-4.65a3.54,3.54,0,0,0-2.35-.64,3.4,3.4,0,0,0-2.34.64c-.79.65-1.38,2-1.38,4.65Z"/>
<path fill="#f68e2f" d="M172.11,70.79h4.33V73a7,7,0,0,0,1.05,4.28,2.2,2.2,0,0,0,.83.64,3.9,3.9,0,0,0,1.89.37,3.33,3.33,0,0,0,3.13-1.84,7.59,7.59,0,0,0,.59-3.22,4.59,4.59,0,0,0-1.33-3.45,9.61,9.61,0,0,0-2.81-1.66L179,67.7a12.61,12.61,0,0,1-4.1-2.53,9.08,9.08,0,0,1-2.76-6.81,10.59,10.59,0,0,1,2.25-7,7.58,7.58,0,0,1,5.85-2.67,7.31,7.31,0,0,1,6.12,2.67,11.13,11.13,0,0,1,2,7v2.17h-4.37V58.36c0-2.62-.59-4-1.38-4.69a3.51,3.51,0,0,0-2.34-.64A3.18,3.18,0,0,0,177,55.19a8,8,0,0,0-.59,3.17,4.8,4.8,0,0,0,1.33,3.5,7.72,7.72,0,0,0,2.94,1.84l.74.32a11.85,11.85,0,0,1,4,2.4,8.79,8.79,0,0,1,2.85,6.76c0,5.2-2.89,9.38-8.09,9.38-5.39,0-8.1-3.54-8.1-9.61Z"/>
<path fill="#f68e2f" d="M204.54,58.36a11.17,11.17,0,0,1,1.93-7,7.34,7.34,0,0,1,6.12-2.67,7.21,7.21,0,0,1,6.07,2.67,11,11,0,0,1,2,7v2.17h-4.37V58.36c0-2.62-.6-4-1.33-4.69a3.54,3.54,0,0,0-2.35-.64,3.43,3.43,0,0,0-2.35.64c-.78.65-1.38,2.07-1.38,4.69V72.9a7.13,7.13,0,0,0,1.06,4.33,2.24,2.24,0,0,0,.83.69,3.83,3.83,0,0,0,1.84.36,3.16,3.16,0,0,0,2.67-1,7.24,7.24,0,0,0,1-4.33V70.74h4.37V72.9a11,11,0,0,1-2,7,7.2,7.2,0,0,1-6.07,2.72,7.92,7.92,0,0,1-3.91-.92,7,7,0,0,1-2.21-1.8c-1.29-1.65-1.93-4-1.93-7Z"/>
<path fill="#f68e2f" d="M238.12,82.56h-4.37v-10c0-3-1.43-4.46-4.32-4.46h-2.72V82.56h-4.32V48.66h7c5.84,0,8.6,3.36,8.6,9.66,0,3.13-.69,5.52-2,7.13a1.16,1.16,0,0,0-.19.23,1.38,1.38,0,0,1-.27.23,8.88,8.88,0,0,1,2.57,6.62ZM226.71,63.7h2.72a5.19,5.19,0,0,0,2.43-.41,5.67,5.67,0,0,0,.83-.65c.69-.87,1-2.3,1-4.32,0-2.26-.36-3.59-1-4.37a4.29,4.29,0,0,0-3.22-.92h-2.72Z"/>
<path fill="#f68e2f" d="M247.27,82.61H243V48.7h4.32Z"/>
<path fill="#f68e2f" d="M263.37,73.13h-5.88l-2.17,9.48h-4.46l7.82-33.91h3.45L270,82.61h-4.5Zm-4.87-4.32h3.86l-1.93-8.33Z"/>
<path fill="#f68e2f" d="M271,48.66h19.19V53h-7.41V82.56h-4.37V53H271Z"/>
<path fill="#f68e2f" d="M297.87,82.61h-4.32V48.7h4.32Z"/>
<path fill="#f68e2f" d="M311.58,71.43l5.75-22.77h4.46l-8.51,33.9h-3.4l-8.42-33.9h4.46Z"/>
<path fill="#f68e2f" d="M322.67,58.32c0-3,.64-5.34,1.93-7a7.38,7.38,0,0,1,2.21-1.8,8.41,8.41,0,0,1,3.91-.87,7.31,7.31,0,0,1,6.12,2.67,11.22,11.22,0,0,1,1.93,7V72.9a11.22,11.22,0,0,1-1.93,7,8.35,8.35,0,0,1-12.24,0c-1.29-1.65-1.93-4-1.93-7ZM327,72.9c0,2.72.6,4,1.38,4.65a3.49,3.49,0,0,0,2.35.69,3.59,3.59,0,0,0,2.34-.69c.79-.65,1.38-1.93,1.38-4.65V58.32c0-2.62-.59-4-1.38-4.65a3.51,3.51,0,0,0-2.34-.64,3.42,3.42,0,0,0-2.35.64c-.78.65-1.38,2-1.38,4.65Z"/>
<path fill="#f68e2f" d="M341.3,70.79h4.32V73a7,7,0,0,0,1.06,4.28,2.12,2.12,0,0,0,.83.64,3.85,3.85,0,0,0,1.88.37,3.31,3.31,0,0,0,3.13-1.84,7.45,7.45,0,0,0,.6-3.22,4.56,4.56,0,0,0-1.34-3.45,9.56,9.56,0,0,0-2.8-1.66l-.83-.37a12.59,12.59,0,0,1-4.09-2.53,9.08,9.08,0,0,1-2.76-6.81,10.59,10.59,0,0,1,2.25-7,7.56,7.56,0,0,1,5.84-2.67,7.3,7.3,0,0,1,6.12,2.67,11.07,11.07,0,0,1,2,7v2.17h-4.37V58.36c0-2.62-.6-4-1.38-4.69a3.54,3.54,0,0,0-2.35-.64,3.16,3.16,0,0,0-3.17,2.16,8,8,0,0,0-.6,3.17,4.8,4.8,0,0,0,1.33,3.5,7.84,7.84,0,0,0,2.95,1.84l.73.32a11.78,11.78,0,0,1,4,2.4,8.82,8.82,0,0,1,2.85,6.76c0,5.2-2.9,9.38-8.1,9.38C344,82.56,341.3,79,341.3,73Z"/>
</svg>