
<svg xmlns="http://www.w3.org/2000/svg" viewBox="0 0 226.73 158.62">


<path fill="#f68e2f" d="M65.77,36.51q0,4.71-2.11,7.17c-1.49,1.73-3.74,2.58-6.69,2.58H54.2V61.34H52.56V44.62H57c4.87,0,7.12-2.53,7.12-8.11S61.84,28.45,57,28.45H49.8V26.81H57c3,0,5.2.85,6.69,2.58S65.77,33.37,65.77,36.51ZM51.44,61.34H49.8V29.58h1.64ZM57,43.49H52.56V29.58H57c2.1,0,3.65.51,4.59,1.59S63,34,63,36.51C63,41.43,61.23,43.49,57,43.49ZM54.2,41.85H57c2.43,0,3.09-.75,3.32-1.08.7-.79,1-2.2,1-4.26,0-4.45-1.5-5.29-4.35-5.29H54.2Z"/>
<path fill="#f68e2f" d="M83.81,51.22V61.43H82.12V51.22a7.43,7.43,0,0,0-2-5.48,7.14,7.14,0,0,0-2-1.26c2.62-1,3.93-3.56,3.93-7.73,0-2.77-.56-4.83-1.68-6.14s-3-2-5.44-2H67.79V26.91H75c3,0,5.2.89,6.7,2.62s2.06,4,2.06,7.22S83,42.37,81.65,44a5.2,5.2,0,0,1-.47.47A9,9,0,0,1,83.81,51.22ZM69.43,61.43H67.79V29.67h1.64Zm5-17.56H70.55V29.67H75c2.11,0,3.66.56,4.59,1.64S81,34.26,81,36.75c0,5.06-1.73,7.12-6,7.12Zm5,17.56V51.22c0-3-1.46-4.54-4.41-4.54H72.19V61.43H70.55V45H75C78.84,45,81,47.24,81,51.22V61.43Zm-6.61-19.2H75c2.39,0,3.09-.75,3.33-1.08.7-.89,1-2.34,1-4.4,0-4.64-1.5-5.39-4.36-5.39H72.19V42.23Z"/>
<path fill="#f68e2f" d="M102.5,36.6V51.5c0,3.09-.66,5.44-2,7.08a8.41,8.41,0,0,1-12.46,0c-1.31-1.64-2-4-2-7.08V36.6a11.26,11.26,0,0,1,2-7.07,8.49,8.49,0,0,1,12.46,0A11.26,11.26,0,0,1,102.5,36.6Zm-1.64,0a9.58,9.58,0,0,0-1.64-6,6.79,6.79,0,0,0-9.84,0,9.58,9.58,0,0,0-1.64,6V51.5a9.59,9.59,0,0,0,1.64,6,6.7,6.7,0,0,0,9.84,0,9.59,9.59,0,0,0,1.64-6Zm-2.53-5.33c.94,1.12,1.4,2.9,1.4,5.33V51.5c0,4.73-1.82,7.08-5.43,7.08s-5.43-2.35-5.43-7.08V36.6c0-2.43.46-4.21,1.4-5.33a5.65,5.65,0,0,1,8.06,0Zm-.24,5.33c0-5.38-2.48-5.38-3.79-5.38s-3.79,0-3.79,5.38V51.5c0,5.44,2.48,5.44,3.79,5.44s3.79,0,3.79-5.44Z"/>
<path fill="#f68e2f" d="M120.06,39v-2.2c0-2.67-.51-4.74-1.59-6.09a6.88,6.88,0,0,0-9.84,0A10,10,0,0,0,107,36.75V51.6c0,6.79,3.56,8.19,6.56,8.19s6.51-1.4,6.51-8.19V49.35h1.69V51.6c0,3-.66,5.38-2,7.07a7.39,7.39,0,0,1-6.19,2.76,7.49,7.49,0,0,1-6.23-2.76c-1.31-1.64-2-4-2-7.07V36.75c0-3,.66-5.44,2-7.08a7.49,7.49,0,0,1,6.23-2.76,7.39,7.39,0,0,1,6.19,2.76c1.35,1.69,2,4,2,7.08V39ZM119,36.75V39H117.3v-2.2c0-5.39-2.44-5.39-3.75-5.39s-3.79,0-3.79,5.39V51.6A7,7,0,0,0,110.84,56c.32.52,1,1.08,2.71,1.08s2.34-.56,2.72-1.08a7.1,7.1,0,0,0,1-4.35V49.35H119V51.6c0,4.73-1.83,7.07-5.44,7.07s-5.43-2.34-5.43-7.07V36.75c0-4.74,1.83-7.08,5.43-7.08S119,32,119,36.75Z"/>
<path fill="#f68e2f" d="M126.15,59.79H138.8v1.64H124.51V26.91H138.8v1.68H126.15v31.2ZM138.8,31.36h-9.88V42h9.88v1.68H127.28v-14H138.8Zm0,15h-9.88V57h9.88v1.64H127.28v-14H138.8Z"/>
<path fill="#f68e2f" d="M141.94,36.79c0-5.85,3.33-9.88,8.24-9.88a7.49,7.49,0,0,1,6.24,2.71,11.42,11.42,0,0,1,2,7.17V39h-1.69v-2.2c0-2.76-.56-4.78-1.64-6.09a6.51,6.51,0,0,0-9.88.33,9.42,9.42,0,0,0-1.64,5.76c0,5.44,4.22,7.22,6,8l.79.37c1.59.61,5.3,2.11,5.3,6.75,0,4.31-2.07,6.79-5.49,6.79A5,5,0,0,1,146.11,57c-.94-1.17-1.41-3-1.41-5.39v-2.2h1.64v2.2A7.09,7.09,0,0,0,147.42,56a3.18,3.18,0,0,0,2.76,1c3.38,0,3.8-3.23,3.8-5.15,0-3.24-2.2-4.31-4.22-5.2l-.84-.38a13.06,13.06,0,0,1-4.17-2.57A9.28,9.28,0,0,1,141.94,36.79Zm16.49,15.09a10.63,10.63,0,0,1-2,6.6,8.37,8.37,0,0,1-12.51.28c-1.35-1.64-2-4-2-7.12v-2.2h1.64v2.2a9.72,9.72,0,0,0,1.64,6.09,6,6,0,0,0,5,2.06,5.81,5.81,0,0,0,4.92-2.34,8.93,8.93,0,0,0,1.64-5.57c0-5.39-4.31-7.17-6-7.78l-.75-.33c-1.73-.75-5.34-2.39-5.34-7,0-3.23,1.46-7.12,5.48-7.12a4.87,4.87,0,0,1,4.08,1.69c.94,1.17,1.41,3,1.41,5.43V39H154v-2.2c0-5.43-2.48-5.43-3.8-5.43-3.56,0-3.84,4.12-3.84,5.43,0,3.19,2.16,4.59,4.36,5.44l.75.32A12.09,12.09,0,0,1,155.52,45,9,9,0,0,1,158.43,51.88Z"/>
<path fill="#f68e2f" d="M160.54,36.79c0-5.85,3.32-9.88,8.24-9.88A7.46,7.46,0,0,1,175,29.62a11.36,11.36,0,0,1,2,7.17V39h-1.69v-2.2c0-2.76-.56-4.78-1.64-6.09a5.83,5.83,0,0,0-4.92-2.11,5.75,5.75,0,0,0-5,2.44,9.42,9.42,0,0,0-1.64,5.76c0,5.44,4.21,7.22,6,8l.8.37c1.59.61,5.29,2.11,5.29,6.75,0,4.31-2.06,6.79-5.48,6.79A5,5,0,0,1,164.71,57c-.94-1.17-1.41-3-1.41-5.39v-2.2h1.64v2.2A7,7,0,0,0,166,56a3.18,3.18,0,0,0,2.76,1c3.37,0,3.8-3.23,3.8-5.15,0-3.24-2.21-4.31-4.22-5.2l-.84-.38a13,13,0,0,1-4.17-2.57A9.25,9.25,0,0,1,160.54,36.79ZM177,51.88a10.63,10.63,0,0,1-2,6.6,7.52,7.52,0,0,1-6.28,3,7.45,7.45,0,0,1-6.23-2.67c-1.36-1.64-2-4-2-7.12v-2.2h1.64v2.2a9.72,9.72,0,0,0,1.64,6.09,6,6,0,0,0,5,2.06,5.82,5.82,0,0,0,4.92-2.34,8.93,8.93,0,0,0,1.64-5.57c0-5.39-4.31-7.17-6-7.78l-.75-.33c-1.73-.75-5.34-2.39-5.34-7,0-3.23,1.45-7.12,5.48-7.12a4.87,4.87,0,0,1,4.08,1.69c.93,1.17,1.4,3,1.4,5.43V39h-1.68v-2.2c0-5.43-2.49-5.43-3.8-5.43-3.56,0-3.84,4.12-3.84,5.43,0,3.19,2.16,4.59,4.36,5.44l.75.32A12.19,12.19,0,0,1,174.12,45,9,9,0,0,1,177,51.88Z"/>
<path fill="#f68e2f" d="M195.53,36.6V51.5c0,3.09-.66,5.44-2,7.08a8.41,8.41,0,0,1-12.46,0c-1.31-1.64-2-4-2-7.08V36.6a11.26,11.26,0,0,1,2-7.07,8.49,8.49,0,0,1,12.46,0A11.26,11.26,0,0,1,195.53,36.6Zm-1.64,0a9.58,9.58,0,0,0-1.64-6,6.79,6.79,0,0,0-9.84,0,9.58,9.58,0,0,0-1.64,6V51.5a9.59,9.59,0,0,0,1.64,6,6.7,6.7,0,0,0,9.84,0,9.59,9.59,0,0,0,1.64-6Zm-2.53-5.33q1.41,1.68,1.41,5.33V51.5c0,4.73-1.83,7.08-5.44,7.08s-5.43-2.35-5.43-7.08V36.6q0-3.65,1.4-5.33a5.65,5.65,0,0,1,8.06,0Zm-.23,5.33c0-5.38-2.49-5.38-3.8-5.38s-3.79,0-3.79,5.38V51.5c0,5.44,2.48,5.44,3.79,5.44s3.8,0,3.8-5.44Z"/>
<path fill="#f68e2f" d="M198.39,36.79c0-5.85,3.32-9.88,8.24-9.88a7.46,7.46,0,0,1,6.23,2.71,11.36,11.36,0,0,1,2,7.17V39h-1.69v-2.2c0-2.76-.56-4.78-1.64-6.09a5.83,5.83,0,0,0-4.92-2.11,5.75,5.75,0,0,0-5,2.44A9.42,9.42,0,0,0,200,36.79c0,5.44,4.21,7.22,6,8l.8.37c1.59.61,5.29,2.11,5.29,6.75,0,4.31-2.06,6.79-5.48,6.79A5,5,0,0,1,202.56,57c-.94-1.17-1.41-3-1.41-5.39v-2.2h1.64v2.2A7,7,0,0,0,203.87,56a3.18,3.18,0,0,0,2.76,1c3.37,0,3.8-3.23,3.8-5.15,0-3.24-2.21-4.31-4.22-5.2l-.84-.38a13,13,0,0,1-4.17-2.57A9.25,9.25,0,0,1,198.39,36.79Zm16.49,15.09a10.63,10.63,0,0,1-2,6.6,7.52,7.52,0,0,1-6.28,3,7.45,7.45,0,0,1-6.23-2.67c-1.36-1.64-2-4-2-7.12v-2.2H200v2.2a9.72,9.72,0,0,0,1.64,6.09,6,6,0,0,0,5,2.06,5.82,5.82,0,0,0,4.92-2.34,8.93,8.93,0,0,0,1.64-5.57c0-5.39-4.31-7.17-5.95-7.78l-.75-.33c-1.73-.75-5.34-2.39-5.34-7,0-3.23,1.45-7.12,5.48-7.12a4.87,4.87,0,0,1,4.08,1.69c.93,1.17,1.4,3,1.4,5.43V39h-1.68v-2.2c0-5.43-2.49-5.43-3.8-5.43-3.56,0-3.84,4.12-3.84,5.43,0,3.19,2.16,4.59,4.36,5.44l.75.32A12.19,12.19,0,0,1,212,45,9,9,0,0,1,214.88,51.88Z"/>
<path fill="#f68e2f" d="M51.44,108.09H64.09v1.64H49.8V75.21H64.09v1.68H51.44v31.2ZM64.09,79.66H54.2V90.25h9.89v1.68H52.56V78H64.09Zm0,15H54.2v10.63h9.89V107H52.56V93H64.09Z"/>
<path fill="#f68e2f" d="M94.91,84.81q0,4.71-2.11,7.17c-1.5,1.73-3.75,2.57-6.7,2.57H83.34v15.09H81.7V92.92h4.4c4.87,0,7.12-2.53,7.12-8.11S91,76.75,86.1,76.75H78.94V75.11H86.1c3,0,5.2.85,6.7,2.58S94.91,81.67,94.91,84.81ZM80.57,109.64H78.94V77.88h1.63ZM86.1,91.79H81.7V77.88h4.4c2.11,0,3.66.51,4.59,1.59s1.46,2.86,1.46,5.34C92.15,89.73,90.37,91.79,86.1,91.79Zm-2.76-1.64H86.1c2.44,0,3.09-.75,3.33-1.08.7-.79,1-2.2,1-4.26,0-4.45-1.5-5.29-4.36-5.29H83.34Z"/>
<path fill="#f68e2f" d="M112.94,99.52v10.21h-1.68V99.52a7.4,7.4,0,0,0-2-5.48,7,7,0,0,0-2-1.27c2.62-1,3.93-3.56,3.93-7.72,0-2.77-.56-4.83-1.69-6.14s-3-2-5.43-2H96.92V75.21h7.17c3,0,5.2.89,6.7,2.62s2.06,4,2.06,7.22-.7,5.62-2.06,7.26a4.12,4.12,0,0,1-.47.46A9,9,0,0,1,112.94,99.52ZM98.56,109.73H96.92V78h1.64Zm5-17.56H99.69V78h4.4c2.11,0,3.65.56,4.59,1.64s1.41,3,1.41,5.44c0,5-1.74,7.12-6,7.12Zm5,17.56V99.52c0-3-1.45-4.54-4.4-4.54h-2.76v14.75H99.69V93.29h4.4c3.89,0,6.09,2.25,6.09,6.23v10.21Zm-6.6-19.2h2.2c2.39,0,3.09-.75,3.33-1.08.7-.89,1-2.34,1-4.4,0-4.64-1.5-5.39-4.36-5.39h-2.76V90.53Z"/>
<path fill="#f68e2f" d="M131.63,84.9V99.8c0,3.09-.65,5.44-2,7.07a8.39,8.39,0,0,1-12.46,0c-1.32-1.63-2-4-2-7.07V84.9c0-3,.65-5.38,2-7.07a8.49,8.49,0,0,1,12.46,0C131,79.52,131.63,81.86,131.63,84.9Zm-1.63,0a9.62,9.62,0,0,0-1.64-6,6.79,6.79,0,0,0-9.84,0,9.56,9.56,0,0,0-1.64,6V99.8c0,2.67.56,4.69,1.64,6a6.68,6.68,0,0,0,9.84,0,9.6,9.6,0,0,0,1.64-6Zm-2.53-5.34q1.4,1.69,1.4,5.34V99.8c0,4.73-1.83,7.07-5.43,7.07S118,104.53,118,99.8V84.9q0-3.65,1.41-5.34a5.67,5.67,0,0,1,8.06,0Zm-.24,5.34c0-5.38-2.48-5.38-3.79-5.38s-3.8,0-3.8,5.38V99.8c0,5.44,2.48,5.44,3.8,5.44s3.79,0,3.79-5.44Z"/>
<path fill="#f68e2f" d="M150.14,85.23V99.75c0,3.14-.7,5.58-2.06,7.22-1.5,1.83-3.75,2.76-6.7,2.76h-6.89v-1.64h6.89a6.75,6.75,0,0,0,5.43-2.15q1.69-2.11,1.69-6.19V85.23c0-2.71-.56-4.78-1.69-6.18a6.7,6.7,0,0,0-5.43-2.16h-6.89V75.21h6.89c3,0,5.2.93,6.7,2.81C149.44,79.66,150.14,82.09,150.14,85.23Zm-14,21.74h-1.64V78h1.64Zm5.25,0h-4.12V78h4.12c2.11,0,3.65.61,4.54,1.78s1.45,3,1.45,5.48V99.75c0,2.49-.46,4.31-1.45,5.49S143.49,107,141.38,107Zm-2.48-1.64h2.48c2.2,0,4.31-.42,4.31-5.58V85.23c0-5.15-2.11-5.57-4.31-5.57H138.9Z"/>
<path fill="#f68e2f" d="M168.78,75.21v25.34c0,2.86-.61,5.06-1.87,6.61a8,8,0,0,1-11.71,0c-1.27-1.55-1.88-3.75-1.88-6.61V75.21H155v25.34a8.63,8.63,0,0,0,1.55,5.58,6.25,6.25,0,0,0,9.09,0,8.63,8.63,0,0,0,1.54-5.58V75.21Zm-11.05,0v25.34c0,4.78,2.1,4.78,3.32,4.78s3.33,0,3.33-4.78V75.21H166v25.34a7.89,7.89,0,0,1-1.27,4.92,4.47,4.47,0,0,1-3.7,1.5,4.55,4.55,0,0,1-3.7-1.5,8,8,0,0,1-1.26-4.92V75.21Z"/>
<path fill="#f68e2f" d="M180.12,76.89h-8.29V75.21h17.66v1.68h-9.37Zm0,32.84h-1.69V79.66h-6.6V78h8.29ZM181.2,78h8.29v1.69h-6.61v30.07H181.2V78Z"/>
<path fill="#f68e2f" d="M207.38,84.9V99.8c0,3.09-.65,5.44-2,7.07a8.39,8.39,0,0,1-12.46,0c-1.31-1.63-2-4-2-7.07V84.9c0-3,.65-5.38,2-7.07a8.49,8.49,0,0,1,12.46,0C206.73,79.52,207.38,81.86,207.38,84.9Zm-1.64,0a9.56,9.56,0,0,0-1.64-6,6.78,6.78,0,0,0-9.83,0,9.56,9.56,0,0,0-1.64,6V99.8c0,2.67.56,4.69,1.64,6a6.67,6.67,0,0,0,9.83,0c1.08-1.35,1.64-3.37,1.64-6Zm-2.53-5.34q1.41,1.69,1.41,5.34V99.8c0,4.73-1.83,7.07-5.44,7.07s-5.43-2.34-5.43-7.07V84.9q0-3.65,1.41-5.34a5.66,5.66,0,0,1,8.05,0ZM203,84.9c0-5.38-2.48-5.38-3.8-5.38s-3.79,0-3.79,5.38V99.8c0,5.44,2.48,5.44,3.79,5.44s3.8,0,3.8-5.44Z"/>
<path fill="#f68e2f" d="M210.24,85.09c0-5.85,3.33-9.88,8.24-9.88a7.45,7.45,0,0,1,6.23,2.71,11.36,11.36,0,0,1,2,7.17v2.2H225v-2.2c0-2.76-.56-4.78-1.64-6.09a6.51,6.51,0,0,0-9.88.33,9.42,9.42,0,0,0-1.64,5.76c0,5.44,4.21,7.22,6,8l.8.37c1.59.61,5.29,2.11,5.29,6.75,0,4.31-2.06,6.79-5.48,6.79a5,5,0,0,1-4.07-1.64c-.94-1.17-1.41-3-1.41-5.39v-2.2h1.64v2.2a7.09,7.09,0,0,0,1.08,4.36,3.18,3.18,0,0,0,2.76,1c3.38,0,3.8-3.23,3.8-5.15,0-3.24-2.2-4.31-4.22-5.2l-.84-.38A12.94,12.94,0,0,1,213.05,92,9.25,9.25,0,0,1,210.24,85.09Zm16.49,15.09a10.63,10.63,0,0,1-2,6.6,8.37,8.37,0,0,1-12.51.28c-1.36-1.64-2-4-2-7.12v-2.2h1.64v2.2a9.72,9.72,0,0,0,1.64,6.09,6,6,0,0,0,5,2.06,5.81,5.81,0,0,0,4.92-2.34,9,9,0,0,0,1.64-5.57c0-5.39-4.31-7.17-5.95-7.78l-.75-.33c-1.73-.75-5.34-2.39-5.34-7,0-3.23,1.46-7.12,5.48-7.12a4.87,4.87,0,0,1,4.08,1.69c.94,1.17,1.4,3,1.4,5.43v2.2h-1.68v-2.2c0-5.43-2.48-5.43-3.8-5.43-3.56,0-3.84,4.12-3.84,5.43,0,3.19,2.16,4.59,4.36,5.44l.75.32a12.09,12.09,0,0,1,4.07,2.44A9,9,0,0,1,226.73,100.18Z"/>
<path fill="#f68e2f" d="M64.51,135.55v-2.21c0-2.67-.52-4.73-1.6-6.08A6,6,0,0,0,58,125.19a6,6,0,0,0-4.92,2.07,10,10,0,0,0-1.64,6.08v14.85c0,6.8,3.56,8.2,6.56,8.2s6.51-1.4,6.51-8.2V146h1.68v2.24c0,3.05-.65,5.39-2,7.08A7.37,7.37,0,0,1,58,158a7.46,7.46,0,0,1-6.23-2.76c-1.32-1.64-2-4-2-7.08V133.34c0-3,.65-5.43,2-7.07A7.46,7.46,0,0,1,58,123.51a7.37,7.37,0,0,1,6.18,2.76c1.36,1.69,2,4,2,7.07v2.21Zm-1.08-2.21v2.21H61.74v-2.21C61.74,128,59.31,128,58,128s-3.8,0-3.8,5.38v14.85a7.09,7.09,0,0,0,1.08,4.36c.33.52,1,1.08,2.72,1.08s2.34-.56,2.71-1.08c.71-.89,1-2.34,1-4.36V146h1.69v2.24c0,4.74-1.83,7.08-5.43,7.08s-5.44-2.34-5.44-7.08V133.34c0-4.73,1.83-7.07,5.44-7.07S63.43,128.61,63.43,133.34Z"/>
<path fill="#f68e2f" d="M85,147.82V158H83.29V147.82a7.38,7.38,0,0,0-2-5.48,7,7,0,0,0-2-1.27c2.62-1,3.94-3.56,3.94-7.73,0-2.76-.57-4.82-1.69-6.13s-3-2-5.44-2H69v-1.68h7.16c3,0,5.2.89,6.7,2.62s2.07,4,2.07,7.21-.71,5.63-2.07,7.27a5,5,0,0,1-.46.46A9.06,9.06,0,0,1,85,147.82ZM70.6,158H69V126.27H70.6Zm5-17.56H71.72v-14.2h4.4c2.11,0,3.66.56,4.6,1.64s1.4,3,1.4,5.43c0,5.06-1.73,7.13-6,7.13Zm5,17.56V147.82c0-3-1.45-4.54-4.41-4.54H73.36V158H71.72V141.59h4.4c3.89,0,6.09,2.25,6.09,6.23V158Zm-6.61-19.2h2.2c2.39,0,3.1-.75,3.33-1.08.7-.89,1-2.34,1-4.41,0-4.63-1.5-5.38-4.36-5.38H73.36v10.87Z"/>
<path fill="#f68e2f" d="M90.32,123.46V158H88.68V123.46Zm1.12,0h1.64V158H91.44Z"/>
<path fill="#f68e2f" d="M108.73,123.51l8,34.52H115l-7.55-32.56h-1L98.89,158H97.2l8-34.52h3.51Zm-6.09,23.23h8.62L113.88,158h-1.69l-2.24-9.6h-6l-2.2,9.6H100Zm.23-1.07L107,128.19l4,17.48Zm6-1.69-2-8.43L105,144Z"/>
<path fill="#f68e2f" d="M122.31,125.19H114v-1.68h17.66v1.68h-9.37Zm0,32.84h-1.68V128H114v-1.69h8.29Zm1.08-31.76h8.29V128h-6.6V158h-1.69V126.27Z"/>
<path fill="#f68e2f" d="M137.35,123.46V158h-1.64V123.46Zm1.12,0h1.64V158h-1.64Z"/>
<path fill="#f68e2f" d="M162.74,123.51h1.73L155.81,158h-3.47l-8.57-34.52h1.64l8.19,32.7h.94Zm-1.17,0-7.5,30-7.49-30h1.73l5.76,23.19,5.86-23.19Z"/>
<path fill="#f68e2f" d="M181.76,133.2v14.9c0,3.09-.66,5.44-2,7.08a8.41,8.41,0,0,1-12.46,0c-1.31-1.64-2-4-2-7.08V133.2a11.26,11.26,0,0,1,2-7.07,8.49,8.49,0,0,1,12.46,0A11.26,11.26,0,0,1,181.76,133.2Zm-1.64,0a9.56,9.56,0,0,0-1.64-6,6.79,6.79,0,0,0-9.84,0,9.56,9.56,0,0,0-1.64,6v14.9c0,2.67.56,4.69,1.64,6a6.68,6.68,0,0,0,9.84,0c1.08-1.35,1.64-3.37,1.64-6Zm-2.53-5.34c.94,1.13,1.4,2.91,1.4,5.34v14.9c0,4.73-1.82,7.08-5.43,7.08s-5.43-2.35-5.43-7.08V133.2c0-2.43.46-4.21,1.4-5.34a5.67,5.67,0,0,1,8.06,0Zm-.24,5.34c0-5.38-2.48-5.38-3.79-5.38s-3.79,0-3.79,5.38v14.9c0,5.44,2.48,5.44,3.79,5.44s3.79,0,3.79-5.44Z"/>
<path fill="#f68e2f" d="M184.62,133.39c0-5.85,3.32-9.88,8.24-9.88a7.46,7.46,0,0,1,6.23,2.71,11.36,11.36,0,0,1,2,7.17v2.2h-1.69v-2.2c0-2.76-.56-4.78-1.64-6.09a6.52,6.52,0,0,0-9.89.33,9.48,9.48,0,0,0-1.64,5.76c0,5.44,4.22,7.22,6,8l.8.37c1.59.61,5.29,2.11,5.29,6.75,0,4.31-2.06,6.79-5.48,6.79a5,5,0,0,1-4.08-1.64c-.93-1.17-1.4-2.95-1.4-5.39V146H189v2.2a7,7,0,0,0,1.08,4.36,3.17,3.17,0,0,0,2.76,1c3.37,0,3.79-3.23,3.79-5.15,0-3.24-2.2-4.31-4.21-5.2l-.84-.38a12.74,12.74,0,0,1-4.17-2.58A9.21,9.21,0,0,1,184.62,133.39Zm16.49,15.09a10.63,10.63,0,0,1-2,6.6,7.52,7.52,0,0,1-6.28,2.95,7.45,7.45,0,0,1-6.23-2.67c-1.36-1.64-2-4-2-7.12V146h1.63v2.2a9.78,9.78,0,0,0,1.64,6.09,6.08,6.08,0,0,0,5,2.06,5.83,5.83,0,0,0,4.92-2.34,9,9,0,0,0,1.64-5.57c0-5.39-4.31-7.17-5.95-7.78l-.75-.33c-1.73-.75-5.34-2.39-5.34-7,0-3.23,1.45-7.12,5.48-7.12a4.87,4.87,0,0,1,4.08,1.69c.93,1.17,1.4,3,1.4,5.43v2.2h-1.69v-2.2c0-5.43-2.48-5.43-3.79-5.43-3.56,0-3.84,4.12-3.84,5.43,0,3.19,2.15,4.59,4.35,5.44l.75.32a12.12,12.12,0,0,1,4.08,2.44A9,9,0,0,1,201.11,148.48Z"/>
<polygon fill="#f68e2f" points="0 129.56 33.65 26.73 33.65 158.62 0 129.56"/>
<path fill="#f68e2f" d="M47.76,5.48a5.47,5.47,0,0,1,.34-1.89,5.23,5.23,0,0,1,1-1.68A5.1,5.1,0,0,1,50.63.7,4.64,4.64,0,0,1,52.74.24a4.3,4.3,0,0,1,2.4.64,4.06,4.06,0,0,1,1.49,1.65L56,2.89A3.19,3.19,0,0,0,55.34,2a3.27,3.27,0,0,0-.81-.6A3.82,3.82,0,0,0,53.62,1a4.38,4.38,0,0,0-.94-.11,3.8,3.8,0,0,0-1.78.41A4.33,4.33,0,0,0,49.6,2.4a4.54,4.54,0,0,0-.81,1.48,5.23,5.23,0,0,0-.27,1.65,5.06,5.06,0,0,0,.32,1.78,5.17,5.17,0,0,0,.89,1.49,4.37,4.37,0,0,0,1.34,1,3.58,3.58,0,0,0,1.66.38,4.9,4.9,0,0,0,1-.11,3.92,3.92,0,0,0,1-.38,3.7,3.7,0,0,0,.86-.64,3.35,3.35,0,0,0,.67-.93l.65.31a3.52,3.52,0,0,1-.73,1.06,4.56,4.56,0,0,1-1,.77,4.66,4.66,0,0,1-1.19.46,4.91,4.91,0,0,1-1.24.16,4.25,4.25,0,0,1-2-.47A5.34,5.34,0,0,1,49.14,9.2a6,6,0,0,1-1-1.74A5.59,5.59,0,0,1,47.76,5.48Z"/>
<path fill="#f68e2f" d="M60.88,11c-1.64,0-2.46-1.14-2.46-3.41V3.11h.74V7.46c0,1.89.65,2.84,1.94,2.84a2.54,2.54,0,0,0,.95-.17,3.13,3.13,0,0,0,.86-.47,3.34,3.34,0,0,0,.71-.74A3.79,3.79,0,0,0,64.1,8V3.11h.74V9.78c0,.25.1.37.31.37v.67l-.13,0h-.09a.86.86,0,0,1-.53-.19.61.61,0,0,1-.23-.5V9a3.64,3.64,0,0,1-1.38,1.45A3.68,3.68,0,0,1,60.88,11Z"/>
<path fill="#f68e2f" d="M70.84,3.78A3,3,0,0,0,69,4.4,3.06,3.06,0,0,0,67.94,6v4.82H67.2V3.11h.71V5A3.68,3.68,0,0,1,69,3.68a2.72,2.72,0,0,1,1.41-.58l.27,0h.19Z"/>
<path fill="#f68e2f" d="M74.7,11a4.92,4.92,0,0,1-1.71-.3,3.76,3.76,0,0,1-1.42-.89l.37-.5a4.41,4.41,0,0,0,1.29.83,3.85,3.85,0,0,0,1.47.27A2.75,2.75,0,0,0,76.32,10a1.34,1.34,0,0,0,.62-1.17,1.11,1.11,0,0,0-.16-.6,1.14,1.14,0,0,0-.47-.42,3.87,3.87,0,0,0-.77-.3l-1.06-.29a11.69,11.69,0,0,1-1.14-.29,3.06,3.06,0,0,1-.79-.36,1.4,1.4,0,0,1-.47-.5,1.69,1.69,0,0,1-.15-.76,2.18,2.18,0,0,1,.22-1,2.08,2.08,0,0,1,.61-.71,2.93,2.93,0,0,1,.91-.42A4.22,4.22,0,0,1,74.76,3a4,4,0,0,1,1.6.3,3,3,0,0,1,1.08.78l-.42.4a2.39,2.39,0,0,0-1-.67,4,4,0,0,0-1.31-.22,3.59,3.59,0,0,0-.81.09,2,2,0,0,0-.66.28,1.52,1.52,0,0,0-.44.5,1.47,1.47,0,0,0-.16.72,1.1,1.1,0,0,0,.11.55.9.9,0,0,0,.35.35,2.66,2.66,0,0,0,.63.26l.92.25c.49.12.92.23,1.29.34a3.59,3.59,0,0,1,.94.4,1.64,1.64,0,0,1,.58.56,1.53,1.53,0,0,1,.2.83,2,2,0,0,1-.81,1.65A3.37,3.37,0,0,1,74.7,11Z"/>
<path fill="#f68e2f" d="M82.61,11a3.6,3.6,0,0,1-2.69-1.19,3.94,3.94,0,0,1-.79-1.27A4.15,4.15,0,0,1,78.85,7a4,4,0,0,1,.29-1.54,3.94,3.94,0,0,1,.79-1.27,3.66,3.66,0,0,1,1.19-.87,3.63,3.63,0,0,1,3,0,3.77,3.77,0,0,1,1.19.87,4,4,0,0,1,.8,1.27,4.21,4.21,0,0,1,0,3.07,4.12,4.12,0,0,1-.79,1.27,3.7,3.7,0,0,1-1.2.87A3.53,3.53,0,0,1,82.61,11Zm-3-4a3.39,3.39,0,0,0,.24,1.28,3.29,3.29,0,0,0,.64,1.05,2.9,2.9,0,0,0,1,.7,2.57,2.57,0,0,0,1.17.26A2.63,2.63,0,0,0,83.77,10a2.82,2.82,0,0,0,1-.72,3.39,3.39,0,0,0,.66-1.06A3.65,3.65,0,0,0,85.62,7a3.59,3.59,0,0,0-.23-1.28,3.28,3.28,0,0,0-.66-1.06,3.19,3.19,0,0,0-1-.72,2.71,2.71,0,0,0-1.17-.26,2.77,2.77,0,0,0-1.17.26,3.06,3.06,0,0,0-1,.73,3.63,3.63,0,0,0-.66,1.07A3.57,3.57,0,0,0,79.59,7Z"/>
<path fill="#f68e2f" d="M95.14,11a3.34,3.34,0,0,1-1.48-.33,3.87,3.87,0,0,1-1.18-.89,4,4,0,0,1-.77-1.28A4.19,4.19,0,0,1,91.43,7a4.31,4.31,0,0,1,.27-1.52,4.25,4.25,0,0,1,.74-1.28,3.49,3.49,0,0,1,1.12-.87A3.06,3.06,0,0,1,95,3a3,3,0,0,1,1,.15,4.19,4.19,0,0,1,.83.39,3.43,3.43,0,0,1,.69.57,4,4,0,0,1,.54.7V0h.74V9.78c0,.25.1.37.31.37v.67l-.15,0h-.12a.66.66,0,0,1-.5-.23.7.7,0,0,1-.21-.48V9.28a3.65,3.65,0,0,1-1.27,1.23A3.22,3.22,0,0,1,95.14,11Zm.13-.67a2.5,2.5,0,0,0,.86-.16A3.53,3.53,0,0,0,97,9.69,3.23,3.23,0,0,0,97.66,9a1.6,1.6,0,0,0,.33-.8V5.69a3.23,3.23,0,0,0-.47-.79,3.27,3.27,0,0,0-.69-.65A3.31,3.31,0,0,0,96,3.81a2.46,2.46,0,0,0-.86-.16,2.53,2.53,0,0,0-1.22.29,3.08,3.08,0,0,0-.93.75,3.38,3.38,0,0,0-.59,1.07A3.71,3.71,0,0,0,92.19,7a3.36,3.36,0,0,0,.24,1.26,3.58,3.58,0,0,0,.66,1.05,3.07,3.07,0,0,0,1,.73A2.84,2.84,0,0,0,95.27,10.3Z"/>
<path fill="#f68e2f" d="M104.36,11a3.69,3.69,0,0,1-2.72-1.19,4.06,4.06,0,0,1-.8-1.29,4.19,4.19,0,0,1-.29-1.55,4.14,4.14,0,0,1,.29-1.54,4.08,4.08,0,0,1,.79-1.26,3.79,3.79,0,0,1,1.2-.85A3.52,3.52,0,0,1,104.32,3a3.65,3.65,0,0,1,1.51.32,3.82,3.82,0,0,1,1.2.86,3.71,3.71,0,0,1,.78,1.26,4.07,4.07,0,0,1,.29,1.52v.18a.33.33,0,0,1,0,.14h-6.76a3.59,3.59,0,0,0,.31,1.24,3.7,3.7,0,0,0,.68,1,3.1,3.1,0,0,0,.94.65,2.71,2.71,0,0,0,1.14.24,3,3,0,0,0,.79-.11,3.82,3.82,0,0,0,.72-.31,2.93,2.93,0,0,0,.59-.46,2.42,2.42,0,0,0,.41-.61l.65.18a2.61,2.61,0,0,1-.48.77,3.6,3.6,0,0,1-.74.6,4.25,4.25,0,0,1-.93.39A4,4,0,0,1,104.36,11Zm3-4.3a3.54,3.54,0,0,0-.31-1.24,3.22,3.22,0,0,0-.67-1,2.88,2.88,0,0,0-.94-.63,2.7,2.7,0,0,0-1.14-.23,2.77,2.77,0,0,0-1.14.23,2.88,2.88,0,0,0-.94.63,3.16,3.16,0,0,0-.65,1,3.63,3.63,0,0,0-.29,1.24Z"/>
<path fill="#f68e2f" d="M116.81,11a3.65,3.65,0,0,1-1.51-.32,3.74,3.74,0,0,1-1.21-.87,4.25,4.25,0,0,1-.8-1.29A4.19,4.19,0,0,1,113,6.94a4.05,4.05,0,0,1,1.09-2.8,3.64,3.64,0,0,1,1.19-.85A3.55,3.55,0,0,1,116.77,3a3.68,3.68,0,0,1,2.71,1.18,3.9,3.9,0,0,1,.79,1.26,4.06,4.06,0,0,1,.28,1.52v.18a.33.33,0,0,1,0,.14h-6.76a3.39,3.39,0,0,0,.32,1.24,3.46,3.46,0,0,0,.67,1,3.23,3.23,0,0,0,.94.65,2.78,2.78,0,0,0,1.14.24,3,3,0,0,0,.79-.11,3.33,3.33,0,0,0,.72-.31,2.67,2.67,0,0,0,.59-.46,2.42,2.42,0,0,0,.41-.61l.65.18a2.61,2.61,0,0,1-.48.77,3.35,3.35,0,0,1-.74.6,3.88,3.88,0,0,1-.93.39A4,4,0,0,1,116.81,11Zm3-4.3a3.33,3.33,0,0,0-.31-1.24,3.38,3.38,0,0,0-.66-1,3.1,3.1,0,0,0-.94-.63,3,3,0,0,0-2.29,0,3,3,0,0,0-.94.63,3.16,3.16,0,0,0-.65,1,3.88,3.88,0,0,0-.29,1.24Z"/>
<path fill="#f68e2f" d="M124.63,11a4.88,4.88,0,0,1-1.71-.3,3.76,3.76,0,0,1-1.42-.89l.37-.5a4.16,4.16,0,0,0,1.29.83,3.85,3.85,0,0,0,1.47.27,2.75,2.75,0,0,0,1.62-.43,1.33,1.33,0,0,0,.61-1.17,1.11,1.11,0,0,0-.15-.6,1.21,1.21,0,0,0-.47-.42,4.13,4.13,0,0,0-.77-.3c-.31-.09-.66-.19-1.07-.29s-.81-.19-1.13-.29a2.91,2.91,0,0,1-.79-.36A1.32,1.32,0,0,1,122,6a1.68,1.68,0,0,1-.16-.76,2.18,2.18,0,0,1,.23-1,2,2,0,0,1,.61-.71,2.82,2.82,0,0,1,.91-.42A4.22,4.22,0,0,1,124.69,3a4,4,0,0,1,1.6.3,3,3,0,0,1,1.08.78l-.42.4a2.39,2.39,0,0,0-1-.67,4,4,0,0,0-1.31-.22,3.47,3.47,0,0,0-.81.09,2,2,0,0,0-.66.28,1.52,1.52,0,0,0-.44.5,1.47,1.47,0,0,0-.16.72,1.1,1.1,0,0,0,.11.55.9.9,0,0,0,.35.35,2.66,2.66,0,0,0,.63.26l.92.25c.49.12.92.23,1.29.34a3.59,3.59,0,0,1,.94.4,1.73,1.73,0,0,1,.58.56,1.62,1.62,0,0,1,.2.83,2,2,0,0,1-.81,1.65A3.41,3.41,0,0,1,124.63,11Z"/>
<path fill="#f68e2f" d="M133.08,11a3.11,3.11,0,0,1-1.78-.53,4.35,4.35,0,0,1-1.25-1.28V14h-.74V3.11H130V4.65a3.88,3.88,0,0,1,1.25-1.2A3.22,3.22,0,0,1,132.91,3a3.26,3.26,0,0,1,1.49.34,4,4,0,0,1,1.17.9,4.23,4.23,0,0,1,1,2.76,4.59,4.59,0,0,1-.25,1.53,4,4,0,0,1-.72,1.27,3.29,3.29,0,0,1-1.12.87A3.23,3.23,0,0,1,133.08,11Zm-.18-.67a2.57,2.57,0,0,0,1.21-.28,3,3,0,0,0,.94-.75,3.53,3.53,0,0,0,.59-1.06A3.7,3.7,0,0,0,135.85,7a3.41,3.41,0,0,0-.24-1.27A3.51,3.51,0,0,0,135,4.65a3.26,3.26,0,0,0-1-.73,2.71,2.71,0,0,0-1.2-.27,2.29,2.29,0,0,0-.85.17,3.35,3.35,0,0,0-.85.46,2.85,2.85,0,0,0-.68.66,1.53,1.53,0,0,0-.33.78V8.26a3.91,3.91,0,0,0,.49.8,4.12,4.12,0,0,0,.67.65,3,3,0,0,0,.8.44A2.64,2.64,0,0,0,132.9,10.3Z"/>
<path fill="#f68e2f" d="M141.66,11a3.69,3.69,0,0,1-2.72-1.19,4.06,4.06,0,0,1-.8-1.29,4.19,4.19,0,0,1-.29-1.55,4.14,4.14,0,0,1,.29-1.54,4.08,4.08,0,0,1,.79-1.26,3.87,3.87,0,0,1,1.19-.85A3.55,3.55,0,0,1,141.61,3a3.66,3.66,0,0,1,1.52.32,3.82,3.82,0,0,1,1.2.86,3.87,3.87,0,0,1,.78,1.26,4.07,4.07,0,0,1,.29,1.52v.18a.33.33,0,0,1,0,.14h-6.76a3.38,3.38,0,0,0,.31,1.24,3.48,3.48,0,0,0,.68,1,3.1,3.1,0,0,0,.94.65,2.71,2.71,0,0,0,1.14.24,2.88,2.88,0,0,0,.78-.11,3.33,3.33,0,0,0,.72-.31,2.73,2.73,0,0,0,.6-.46,2.14,2.14,0,0,0,.4-.61l.66.18a2.45,2.45,0,0,1-.49.77,3.14,3.14,0,0,1-.74.6,3.85,3.85,0,0,1-2,.53Zm3-4.3a3.53,3.53,0,0,0-.3-1.24,3.41,3.41,0,0,0-.67-1,2.88,2.88,0,0,0-.94-.63,2.73,2.73,0,0,0-1.14-.23,2.7,2.7,0,0,0-1.14.23,2.88,2.88,0,0,0-.94.63,3.19,3.19,0,0,0-.66,1,3.62,3.62,0,0,0-.28,1.24Z"/>
<path fill="#f68e2f" d="M146.49,6.94a4.34,4.34,0,0,1,.28-1.54,3.7,3.7,0,0,1,.79-1.26,3.79,3.79,0,0,1,1.2-.85,3.9,3.9,0,0,1,3.38.16,3.06,3.06,0,0,1,1.2,1.32l-.73.24a2.46,2.46,0,0,0-1-1,2.73,2.73,0,0,0-1.38-.36,2.79,2.79,0,0,0-1.19.25,3,3,0,0,0-.95.7,3.16,3.16,0,0,0-.65,1,3.46,3.46,0,0,0-.24,1.3,3.39,3.39,0,0,0,.25,1.31,3.48,3.48,0,0,0,.65,1.07,3.11,3.11,0,0,0,1,.72,2.82,2.82,0,0,0,1.18.26,2.66,2.66,0,0,0,.79-.12,2.82,2.82,0,0,0,.73-.31,2.64,2.64,0,0,0,.58-.45,1.41,1.41,0,0,0,.33-.54l.73.21a2.67,2.67,0,0,1-.45.75,3.24,3.24,0,0,1-.72.6,3.8,3.8,0,0,1-.92.39,4,4,0,0,1-1,.14,3.69,3.69,0,0,1-2.72-1.19,4.06,4.06,0,0,1-.8-1.29A4.19,4.19,0,0,1,146.49,6.94Z"/>
<path fill="#f68e2f" d="M155.1,1.36V0h.75V1.36Zm0,9.46V3.11h.75v7.71Z"/>
<path fill="#f68e2f" d="M160.07,11a2.5,2.5,0,0,1-1-.19,2.57,2.57,0,0,1-.81-.5,2.19,2.19,0,0,1-.54-.76,2.26,2.26,0,0,1-.19-.94,1.82,1.82,0,0,1,.23-.92,2.33,2.33,0,0,1,.66-.71,3,3,0,0,1,1-.48,4.81,4.81,0,0,1,1.3-.17,7.66,7.66,0,0,1,1.26.11,6.6,6.6,0,0,1,1.13.31V6a2.42,2.42,0,0,0-.62-1.74,2.25,2.25,0,0,0-1.69-.65,3.37,3.37,0,0,0-1.2.24,6.65,6.65,0,0,0-1.28.68l-.28-.5a5.09,5.09,0,0,1,2.82-1,2.94,2.94,0,0,1,2.19.81,3,3,0,0,1,.8,2.23V9.78c0,.25.11.37.33.37v.67l-.16,0h-.14a.59.59,0,0,1-.47-.2.81.81,0,0,1-.21-.48V9.53a3.45,3.45,0,0,1-1.37,1.07A4.28,4.28,0,0,1,160.07,11Zm.15-.59a3.76,3.76,0,0,0,1.58-.33,2.62,2.62,0,0,0,1.1-.86,1,1,0,0,0,.24-.59V7.23A7,7,0,0,0,162,6.92a6.78,6.78,0,0,0-1.2-.1,3.9,3.9,0,0,0-1.06.13,3,3,0,0,0-.81.34,1.7,1.7,0,0,0-.53.54,1.44,1.44,0,0,0-.18.71,1.8,1.8,0,0,0,.15.73,1.58,1.58,0,0,0,.41.58,2.23,2.23,0,0,0,.63.39A2.21,2.21,0,0,0,160.22,10.38Z"/>
<path fill="#f68e2f" d="M166.19,0H167V9.29a1,1,0,0,0,.24.69.91.91,0,0,0,.68.25,2,2,0,0,0,.39,0,1.61,1.61,0,0,0,.42-.11l.15.59a2.74,2.74,0,0,1-.62.17,3.27,3.27,0,0,1-.64.07,1.31,1.31,0,0,1-1.38-1.39Z"/>
<path fill="#f68e2f" d="M170,1.36V0h.74V1.36Zm0,9.46V3.11h.74v7.71Z"/>
<path fill="#f68e2f" d="M172.36,10.29l5.46-6.6h-5.37V3.11h6.2v.54l-5.44,6.59h5.41v.58h-6.26Z"/>
<path fill="#f68e2f" d="M182.2,11a2.53,2.53,0,0,1-1-.19,2.57,2.57,0,0,1-.81-.5,2.19,2.19,0,0,1-.54-.76,2.26,2.26,0,0,1-.19-.94,1.83,1.83,0,0,1,.24-.92,2.18,2.18,0,0,1,.65-.71,3.21,3.21,0,0,1,1-.48,4.89,4.89,0,0,1,1.31-.17,7.64,7.64,0,0,1,1.25.11,6.35,6.35,0,0,1,1.13.31V6a2.42,2.42,0,0,0-.62-1.74A2.25,2.25,0,0,0,183,3.57a3.32,3.32,0,0,0-1.19.24,6.72,6.72,0,0,0-1.29.68L180.2,4A5.09,5.09,0,0,1,183,3a2.93,2.93,0,0,1,2.19.81A3,3,0,0,1,186,6V9.78c0,.25.11.37.33.37v.67l-.16,0H186a.62.62,0,0,1-.47-.2.81.81,0,0,1-.21-.48V9.53A3.42,3.42,0,0,1,184,10.6,4.33,4.33,0,0,1,182.2,11Zm.15-.59a3.76,3.76,0,0,0,1.58-.33,2.62,2.62,0,0,0,1.1-.86,1,1,0,0,0,.24-.59V7.23a6.47,6.47,0,0,0-1.11-.31,6.78,6.78,0,0,0-1.2-.1,3.77,3.77,0,0,0-1.05.13,2.93,2.93,0,0,0-.82.34,1.7,1.7,0,0,0-.53.54,1.44,1.44,0,0,0-.18.71,1.8,1.8,0,0,0,.15.73,1.85,1.85,0,0,0,.41.58,2,2,0,0,0,1.41.53Z"/>
<path fill="#f68e2f" d="M190.4,12.67a3,3,0,0,0,.56.2,2.86,2.86,0,0,0,.73.09c.57,0,.86-.19.86-.55a.46.46,0,0,0-.2-.42,1,1,0,0,0-.53-.12,3.11,3.11,0,0,0-.65.08l-.55.13.63-1.12a3.66,3.66,0,0,1-1.4-.4,3.56,3.56,0,0,1-1.12-.88A4.32,4.32,0,0,1,188,8.43a4.14,4.14,0,0,1-.27-1.49A4.34,4.34,0,0,1,188,5.4a3.7,3.7,0,0,1,.79-1.26,3.79,3.79,0,0,1,1.2-.85A3.67,3.67,0,0,1,191.53,3a3.61,3.61,0,0,1,1.85.47,3,3,0,0,1,1.2,1.32l-.72.24a2.55,2.55,0,0,0-1-1,2.73,2.73,0,0,0-1.38-.36,2.79,2.79,0,0,0-1.19.25,3,3,0,0,0-.95.7,3.16,3.16,0,0,0-.65,1,3.46,3.46,0,0,0-.24,1.3,3.59,3.59,0,0,0,.25,1.31,3.48,3.48,0,0,0,.65,1.07,3.11,3.11,0,0,0,1,.72,2.85,2.85,0,0,0,1.18.26,2.77,2.77,0,0,0,.8-.12,2.9,2.9,0,0,0,.72-.31,2.42,2.42,0,0,0,.58-.45,1.3,1.3,0,0,0,.33-.54l.73.21a2.69,2.69,0,0,1-.43.72,2.85,2.85,0,0,1-.67.57,3.24,3.24,0,0,1-.86.4,3.2,3.2,0,0,1-1,.18l-.39.65a1,1,0,0,1,.3-.08h.29a1.24,1.24,0,0,1,.79.22.78.78,0,0,1,.28.65.81.81,0,0,1-.36.72,1.71,1.71,0,0,1-1,.25,3.91,3.91,0,0,1-.79-.08,6.34,6.34,0,0,1-.65-.2Z"/>
<path fill="#f68e2f" d="M198.24,11a2.53,2.53,0,0,1-1-.19,2.57,2.57,0,0,1-.81-.5,2.19,2.19,0,0,1-.54-.76,2.26,2.26,0,0,1-.19-.94,1.83,1.83,0,0,1,.24-.92A2.18,2.18,0,0,1,196.6,7a3.21,3.21,0,0,1,1-.48,4.89,4.89,0,0,1,1.31-.17,7.64,7.64,0,0,1,1.25.11,6.35,6.35,0,0,1,1.13.31V6a2.42,2.42,0,0,0-.62-1.74A2.25,2.25,0,0,0,199,3.57a3.32,3.32,0,0,0-1.19.24,6.72,6.72,0,0,0-1.29.68l-.28-.5a5.09,5.09,0,0,1,2.82-1,2.93,2.93,0,0,1,2.19.81,3,3,0,0,1,.8,2.23V9.78c0,.25.11.37.33.37v.67l-.16,0h-.14a.62.62,0,0,1-.47-.2.81.81,0,0,1-.21-.48V9.53A3.42,3.42,0,0,1,200,10.6,4.33,4.33,0,0,1,198.24,11Zm.15-.59a3.76,3.76,0,0,0,1.58-.33,2.62,2.62,0,0,0,1.1-.86,1,1,0,0,0,.24-.59V7.23a6.47,6.47,0,0,0-1.11-.31,6.78,6.78,0,0,0-1.2-.1A3.77,3.77,0,0,0,198,7a2.93,2.93,0,0,0-.82.34,1.7,1.7,0,0,0-.53.54,1.44,1.44,0,0,0-.18.71,1.8,1.8,0,0,0,.15.73,1.85,1.85,0,0,0,.41.58,2,2,0,0,0,1.41.53ZM200,1.23a1.76,1.76,0,0,1-.58-.09,2.66,2.66,0,0,1-.45-.2l-.41-.21a1.06,1.06,0,0,0-.42-.09.71.71,0,0,0-.41.1,1,1,0,0,0-.22.23.82.82,0,0,0-.1.24.7.7,0,0,0,0,.14h-.51a1.74,1.74,0,0,1,0-.26,1.47,1.47,0,0,1,.18-.42,1.57,1.57,0,0,1,.39-.38,1.14,1.14,0,0,1,.65-.17,1.42,1.42,0,0,1,.52.09l.44.21a4,4,0,0,0,.42.2,1.28,1.28,0,0,0,.5.09.85.85,0,0,0,.46-.1.85.85,0,0,0,.26-.23.77.77,0,0,0,.1-.24.49.49,0,0,0,0-.14h.51a1.11,1.11,0,0,1-.06.27,1.08,1.08,0,0,1-.19.41,1.26,1.26,0,0,1-.41.38A1.31,1.31,0,0,1,200,1.23Z"/>
<path fill="#f68e2f" d="M207.54,11a3.58,3.58,0,0,1-1.51-.32,3.66,3.66,0,0,1-1.19-.87,3.94,3.94,0,0,1-.79-1.27A4.37,4.37,0,0,1,203.77,7a4.17,4.17,0,0,1,.29-1.54,4,4,0,0,1,.8-1.27A3.6,3.6,0,0,1,207.54,3,3.48,3.48,0,0,1,209,3.3a3.66,3.66,0,0,1,1.19.87,3.8,3.8,0,0,1,.8,1.27A4,4,0,0,1,211.3,7,4,4,0,0,1,211,8.51a3.94,3.94,0,0,1-.79,1.27A3.6,3.6,0,0,1,207.54,11Zm-3-4a3.39,3.39,0,0,0,.24,1.28,3.32,3.32,0,0,0,.65,1.05,3,3,0,0,0,.95.7,2.63,2.63,0,0,0,1.17.26,2.57,2.57,0,0,0,1.17-.26,3,3,0,0,0,1-.72,3.36,3.36,0,0,0,.65-1.06A3.44,3.44,0,0,0,210.55,7a3.39,3.39,0,0,0-.24-1.28,3.25,3.25,0,0,0-.65-1.06,3.36,3.36,0,0,0-1-.72,2.74,2.74,0,0,0-2.33,0,3,3,0,0,0-1,.73,3.64,3.64,0,0,0-.9,2.37Z"/>
</svg>