
<svg xmlns="http://www.w3.org/2000/svg" viewBox="0 0 325.24 111.97">
<polygon fill="#F79930" points="0 87.2 28.54 0 28.54 111.85 0 87.2"/>
<path fill="#F79930" d="M51,109a3.34,3.34,0,0,1-1.48-.33,3.83,3.83,0,0,1-1.18-.89,4,4,0,0,1-.77-1.27,4.22,4.22,0,0,1-.27-1.49,4.55,4.55,0,0,1,.26-1.53,4.38,4.38,0,0,1,.74-1.28,3.8,3.8,0,0,1,1.12-.87,3.09,3.09,0,0,1,1.42-.33,3,3,0,0,1,.95.15,3.62,3.62,0,0,1,1.53,1,4.37,4.37,0,0,1,.53.69V98h.74v9.79c0,.25.1.37.31.37v.67l-.15,0h-.11a.68.68,0,0,1-.51-.23.74.74,0,0,1-.21-.49v-.86a3.46,3.46,0,0,1-1.26,1.23A3.23,3.23,0,0,1,51,109Zm.14-.66a2.62,2.62,0,0,0,.86-.17,3.16,3.16,0,0,0,.85-.45,3,3,0,0,0,.67-.66,1.53,1.53,0,0,0,.33-.8v-2.53a3.31,3.31,0,0,0-1.16-1.45,3.47,3.47,0,0,0-.83-.44,2.66,2.66,0,0,0-.86-.16,2.57,2.57,0,0,0-1.21.29,2.89,2.89,0,0,0-.94.76,3.53,3.53,0,0,0-.59,1.06,3.76,3.76,0,0,0-.21,1.24,3.29,3.29,0,0,0,.24,1.26,3.34,3.34,0,0,0,.66,1,3.18,3.18,0,0,0,1,.73A2.72,2.72,0,0,0,51.15,108.3Z"/>
<path fill="#F79930" d="M58.85,109a2.72,2.72,0,0,1-1-.18,2.64,2.64,0,0,1-.81-.51,2.25,2.25,0,0,1-.54-.75,2.29,2.29,0,0,1-.19-.94,1.8,1.8,0,0,1,.24-.92,2.26,2.26,0,0,1,.66-.72,3.5,3.5,0,0,1,1-.48,4.89,4.89,0,0,1,1.31-.17,6.69,6.69,0,0,1,1.25.12,5.62,5.62,0,0,1,1.13.3V104a2.38,2.38,0,0,0-.62-1.74,2.23,2.23,0,0,0-1.69-.64,3.53,3.53,0,0,0-1.19.23,6,6,0,0,0-1.28.69l-.29-.51a5.09,5.09,0,0,1,2.82-1,2.93,2.93,0,0,1,2.19.81,3,3,0,0,1,.8,2.23v3.77c0,.25.11.37.33.37v.67l-.15,0h-.15a.62.62,0,0,1-.47-.2.87.87,0,0,1-.21-.49v-.63a3.4,3.4,0,0,1-1.36,1.06A4.3,4.3,0,0,1,58.85,109Zm.15-.59a3.72,3.72,0,0,0,1.58-.33,2.7,2.7,0,0,0,1.11-.85,1.05,1.05,0,0,0,.23-.6v-1.36a5.68,5.68,0,0,0-1.11-.31,6.61,6.61,0,0,0-1.2-.11,4.31,4.31,0,0,0-1,.13,2.67,2.67,0,0,0-.82.35,1.67,1.67,0,0,0-.52.54,1.32,1.32,0,0,0-.19.7,1.8,1.8,0,0,0,.15.73,1.63,1.63,0,0,0,.42.58,1.68,1.68,0,0,0,.63.39A2.19,2.19,0,0,0,59,108.37Z"/>
<path fill="#F79930" d="M68.73,99.36V98h.74v1.37Zm0,9.46v-7.71h.74v7.71Z"/>
<path fill="#F79930" d="M75,109a3.34,3.34,0,0,1-1.48-.33,3.71,3.71,0,0,1-1.18-.89,4.2,4.2,0,0,1-1-2.76,4.32,4.32,0,0,1,.27-1.53,4.17,4.17,0,0,1,.74-1.28,3.8,3.8,0,0,1,1.12-.87,3.06,3.06,0,0,1,1.42-.33,2.89,2.89,0,0,1,.94.15,3.72,3.72,0,0,1,.83.39,3.93,3.93,0,0,1,.7.58,3.43,3.43,0,0,1,.53.69V98h.75v9.79c0,.25.1.37.31.37v.67l-.15,0H78.6a.64.64,0,0,1-.5-.23.74.74,0,0,1-.21-.49v-.86a3.48,3.48,0,0,1-1.27,1.23A3.22,3.22,0,0,1,75,109Zm.13-.66a2.52,2.52,0,0,0,.86-.17,3,3,0,0,0,.85-.45,3,3,0,0,0,.68-.66,1.44,1.44,0,0,0,.32-.8v-2.53a3,3,0,0,0-.46-.8,3.27,3.27,0,0,0-.69-.65,3.67,3.67,0,0,0-.83-.44,2.71,2.71,0,0,0-.86-.16,2.61,2.61,0,0,0-1.22.29,3,3,0,0,0-.93.76,3.15,3.15,0,0,0-.59,1.06A3.76,3.76,0,0,0,72,105a3.29,3.29,0,0,0,.24,1.26,3,3,0,0,0,.66,1,3.14,3.14,0,0,0,1,.73A2.75,2.75,0,0,0,75.1,108.3Z"/>
<path fill="#F79930" d="M84.19,109a3.61,3.61,0,0,1-1.51-.31,3.81,3.81,0,0,1-1.21-.88,4.13,4.13,0,0,1-.8-1.28,4.24,4.24,0,0,1-.29-1.56,4.12,4.12,0,0,1,.29-1.53,4.08,4.08,0,0,1,.79-1.26,3.71,3.71,0,0,1,1.19-.85,3.57,3.57,0,0,1,1.5-.32,3.65,3.65,0,0,1,1.51.32,3.82,3.82,0,0,1,1.2.86,3.87,3.87,0,0,1,.78,1.26,4.11,4.11,0,0,1,.29,1.52v.19a.37.37,0,0,1,0,.14H81.15a3.43,3.43,0,0,0,.31,1.24,3.3,3.3,0,0,0,.68,1,2.78,2.78,0,0,0,.94.65,2.71,2.71,0,0,0,1.14.24,2.88,2.88,0,0,0,.78-.11,3.31,3.31,0,0,0,.72-.3,2.77,2.77,0,0,0,.6-.47,2.21,2.21,0,0,0,.41-.6l.65.18a2.56,2.56,0,0,1-.48.76,3.41,3.41,0,0,1-.75.6,3.59,3.59,0,0,1-.92.39A3.63,3.63,0,0,1,84.19,109Zm3-4.29a3.58,3.58,0,0,0-.3-1.25,3.23,3.23,0,0,0-.67-1,2.9,2.9,0,0,0-2.08-.87,2.87,2.87,0,0,0-1.14.23,2.9,2.9,0,0,0-.94.64,3.25,3.25,0,0,0-.66,1,3.57,3.57,0,0,0-.28,1.24Z"/>
<path fill="#F79930" d="M89.56,99.36V98h.74v1.37Zm0,9.46v-7.71h.74v7.71Z"/>
<path fill="#F79930" d="M94.52,109a2.68,2.68,0,0,1-1-.18,2.42,2.42,0,0,1-.81-.51,2.25,2.25,0,0,1-.54-.75,2.29,2.29,0,0,1-.19-.94,1.9,1.9,0,0,1,.23-.92,2.26,2.26,0,0,1,.66-.72,3.57,3.57,0,0,1,1-.48,4.81,4.81,0,0,1,1.3-.17,6.72,6.72,0,0,1,1.26.12,5.81,5.81,0,0,1,1.13.3V104a2.42,2.42,0,0,0-.62-1.74,2.25,2.25,0,0,0-1.69-.64,3.58,3.58,0,0,0-1.2.23,6.21,6.21,0,0,0-1.28.69l-.28-.51a5.09,5.09,0,0,1,2.82-1,2.93,2.93,0,0,1,2.19.81,3,3,0,0,1,.8,2.23v3.77c0,.25.11.37.33.37v.67l-.16,0h-.14a.6.6,0,0,1-.47-.2.87.87,0,0,1-.21-.49v-.63a3.47,3.47,0,0,1-1.36,1.06A4.36,4.36,0,0,1,94.52,109Zm.15-.59a3.76,3.76,0,0,0,1.58-.33,2.6,2.6,0,0,0,1.1-.85,1,1,0,0,0,.24-.6v-1.36a6.1,6.1,0,0,0-1.11-.31,6.78,6.78,0,0,0-1.2-.11,4.19,4.19,0,0,0-1,.13,2.67,2.67,0,0,0-.82.35,1.7,1.7,0,0,0-.53.54,1.4,1.4,0,0,0-.18.7,1.8,1.8,0,0,0,.15.73,1.61,1.61,0,0,0,.41.58,1.86,1.86,0,0,0,.63.39A2.21,2.21,0,0,0,94.67,108.37Z"/>
<path fill="#F79930" d="M106.29,109a2.68,2.68,0,0,1-1-.18,2.42,2.42,0,0,1-.81-.51,2.25,2.25,0,0,1-.54-.75,2.29,2.29,0,0,1-.19-.94,1.9,1.9,0,0,1,.23-.92,2.26,2.26,0,0,1,.66-.72,3.57,3.57,0,0,1,1-.48,4.81,4.81,0,0,1,1.3-.17,6.72,6.72,0,0,1,1.26.12,5.81,5.81,0,0,1,1.13.3V104a2.42,2.42,0,0,0-.62-1.74,2.25,2.25,0,0,0-1.69-.64,3.58,3.58,0,0,0-1.2.23,6.21,6.21,0,0,0-1.28.69l-.28-.51a5.09,5.09,0,0,1,2.82-1,2.93,2.93,0,0,1,2.19.81,3,3,0,0,1,.8,2.23v3.77c0,.25.11.37.33.37v.67l-.16,0h-.14a.6.6,0,0,1-.47-.2.87.87,0,0,1-.21-.49v-.63a3.47,3.47,0,0,1-1.36,1.06A4.36,4.36,0,0,1,106.29,109Zm.15-.59A3.76,3.76,0,0,0,108,108a2.6,2.6,0,0,0,1.1-.85,1,1,0,0,0,.24-.6v-1.36a6.1,6.1,0,0,0-1.11-.31,6.78,6.78,0,0,0-1.2-.11,4.19,4.19,0,0,0-1,.13,2.67,2.67,0,0,0-.82.35,1.7,1.7,0,0,0-.53.54,1.4,1.4,0,0,0-.18.7,1.8,1.8,0,0,0,.15.73,1.61,1.61,0,0,0,.41.58,1.86,1.86,0,0,0,.63.39A2.21,2.21,0,0,0,106.44,108.37ZM105.86,98h.85l.92,1.26-.51.24Z"/>
<path fill="#F79930" d="M118.06,109a2.72,2.72,0,0,1-1-.18,2.42,2.42,0,0,1-.81-.51,2.25,2.25,0,0,1-.54-.75,2.29,2.29,0,0,1-.19-.94,1.9,1.9,0,0,1,.23-.92,2.26,2.26,0,0,1,.66-.72,3.57,3.57,0,0,1,1-.48,4.81,4.81,0,0,1,1.3-.17,6.72,6.72,0,0,1,1.26.12,5.62,5.62,0,0,1,1.13.3V104a2.42,2.42,0,0,0-.62-1.74,2.25,2.25,0,0,0-1.69-.64,3.53,3.53,0,0,0-1.19.23,6.27,6.27,0,0,0-1.29.69l-.28-.51a5.09,5.09,0,0,1,2.82-1,2.93,2.93,0,0,1,2.19.81,3,3,0,0,1,.8,2.23v3.77c0,.25.11.37.33.37v.67l-.16,0h-.14a.6.6,0,0,1-.47-.2.87.87,0,0,1-.21-.49v-.63a3.47,3.47,0,0,1-1.36,1.06A4.33,4.33,0,0,1,118.06,109Zm.15-.59a3.76,3.76,0,0,0,1.58-.33,2.6,2.6,0,0,0,1.1-.85,1,1,0,0,0,.24-.6v-1.36a5.88,5.88,0,0,0-1.11-.31,6.78,6.78,0,0,0-1.2-.11,4.19,4.19,0,0,0-1,.13,2.67,2.67,0,0,0-.82.35,1.7,1.7,0,0,0-.53.54,1.4,1.4,0,0,0-.18.7,1.8,1.8,0,0,0,.15.73,1.61,1.61,0,0,0,.41.58,1.86,1.86,0,0,0,.63.39A2.21,2.21,0,0,0,118.21,108.37Z"/>
<path fill="#F79930" d="M127.89,109a3.09,3.09,0,0,1-1.77-.52,4.23,4.23,0,0,1-1.25-1.28V112h-.74V101.11h.68v1.54a3.62,3.62,0,0,1,1.25-1.21,3.22,3.22,0,0,1,1.67-.47,3.35,3.35,0,0,1,1.48.34,3.74,3.74,0,0,1,1.17.9,4.17,4.17,0,0,1,1,2.77,4.53,4.53,0,0,1-.25,1.52,4,4,0,0,1-.72,1.28,3.67,3.67,0,0,1-1.12.87A3.27,3.27,0,0,1,127.89,109Zm-.18-.66a2.74,2.74,0,0,0,1.22-.28,2.85,2.85,0,0,0,.93-.75,3.4,3.4,0,0,0,.6-1.07,4,4,0,0,0,.2-1.22,3.58,3.58,0,0,0-.23-1.27,3.51,3.51,0,0,0-.66-1.06,3.22,3.22,0,0,0-1-.73,2.64,2.64,0,0,0-1.2-.28,2.47,2.47,0,0,0-.85.17,3.5,3.5,0,0,0-.85.46,3.1,3.1,0,0,0-.69.66,1.64,1.64,0,0,0-.32.79v2.53a3.66,3.66,0,0,0,.49.8,3.38,3.38,0,0,0,.66.65,3,3,0,0,0,.8.44A2.5,2.5,0,0,0,127.71,108.3Z"/>
<path fill="#F79930" d="M133.26,98H134v9.3a1,1,0,0,0,.25.68.88.88,0,0,0,.67.25l.4,0a2.58,2.58,0,0,0,.42-.12l.15.6a3.52,3.52,0,0,1-.63.17,4,4,0,0,1-.63.06,1.34,1.34,0,0,1-1-.37,1.36,1.36,0,0,1-.38-1Z"/>
<path fill="#F79930" d="M137,99.36V98h.74v1.37Zm0,9.46v-7.71h.74v7.71Z"/>
<path fill="#F79930" d="M139.57,104.93a4.38,4.38,0,0,1,.28-1.54,3.9,3.9,0,0,1,.79-1.26,3.62,3.62,0,0,1,1.2-.84,3.68,3.68,0,0,1,1.53-.32,3.52,3.52,0,0,1,1.85.48,3,3,0,0,1,1.2,1.32l-.72.23a2.59,2.59,0,0,0-1-1,2.8,2.8,0,0,0-1.39-.36,2.82,2.82,0,0,0-2.14,1,3.27,3.27,0,0,0-.65,1,3.6,3.6,0,0,0,0,2.61,3.48,3.48,0,0,0,.65,1.07,3.11,3.11,0,0,0,1,.72,2.72,2.72,0,0,0,1.18.27,2.77,2.77,0,0,0,.8-.12,3.33,3.33,0,0,0,.72-.31,2.42,2.42,0,0,0,.58-.45,1.39,1.39,0,0,0,.33-.55l.73.21a2.42,2.42,0,0,1-.45.75,3,3,0,0,1-.72.6,3.45,3.45,0,0,1-.92.39,3.87,3.87,0,0,1-2.55-.17,3.92,3.92,0,0,1-1.21-.88,4.32,4.32,0,0,1-.8-1.28A4.24,4.24,0,0,1,139.57,104.93Z"/>
<path fill="#F79930" d="M150.08,109a2.72,2.72,0,0,1-1-.18,2.42,2.42,0,0,1-.81-.51,2.25,2.25,0,0,1-.54-.75,2.29,2.29,0,0,1-.19-.94,1.8,1.8,0,0,1,.24-.92,2.12,2.12,0,0,1,.65-.72,3.57,3.57,0,0,1,1-.48,4.89,4.89,0,0,1,1.31-.17,6.69,6.69,0,0,1,1.25.12,5.62,5.62,0,0,1,1.13.3V104a2.42,2.42,0,0,0-.62-1.74,2.25,2.25,0,0,0-1.69-.64,3.53,3.53,0,0,0-1.19.23,6.27,6.27,0,0,0-1.29.69l-.28-.51a5.09,5.09,0,0,1,2.82-1,2.93,2.93,0,0,1,2.19.81,3,3,0,0,1,.8,2.23v3.77c0,.25.11.37.33.37v.67l-.16,0h-.14a.62.62,0,0,1-.47-.2.87.87,0,0,1-.21-.49v-.63a3.4,3.4,0,0,1-1.36,1.06A4.33,4.33,0,0,1,150.08,109Zm.15-.59a3.72,3.72,0,0,0,1.58-.33,2.6,2.6,0,0,0,1.1-.85,1,1,0,0,0,.24-.6v-1.36a5.68,5.68,0,0,0-1.11-.31,6.78,6.78,0,0,0-1.2-.11,4.19,4.19,0,0,0-1.05.13,2.67,2.67,0,0,0-.82.35,1.7,1.7,0,0,0-.53.54,1.4,1.4,0,0,0-.18.7,1.8,1.8,0,0,0,.15.73,1.74,1.74,0,0,0,.41.58,1.86,1.86,0,0,0,.63.39A2.25,2.25,0,0,0,150.23,108.37Z"/>
<path fill="#F79930" d="M158.28,110.67a2.77,2.77,0,0,0,.56.19,2.86,2.86,0,0,0,.73.09c.57,0,.86-.18.86-.55a.44.44,0,0,0-.2-.41,1,1,0,0,0-.53-.12,3.07,3.07,0,0,0-.65.07l-.55.14.63-1.13a3.6,3.6,0,0,1-1.4-.39,3.74,3.74,0,0,1-1.12-.89,4.19,4.19,0,0,1-.73-1.25,4.1,4.1,0,0,1-.27-1.49,4.17,4.17,0,0,1,.29-1.54,3.71,3.71,0,0,1,.78-1.26,3.62,3.62,0,0,1,1.2-.84,3.68,3.68,0,0,1,1.53-.32,3.52,3.52,0,0,1,1.85.48,2.9,2.9,0,0,1,1.2,1.32l-.73.23a2.52,2.52,0,0,0-1-1,2.73,2.73,0,0,0-1.38-.36,2.82,2.82,0,0,0-2.14,1,3.27,3.27,0,0,0-.65,1,3.6,3.6,0,0,0,0,2.61,3.48,3.48,0,0,0,.65,1.07,3.11,3.11,0,0,0,1,.72,2.72,2.72,0,0,0,1.18.27,2.77,2.77,0,0,0,.8-.12,3.33,3.33,0,0,0,.72-.31,2.42,2.42,0,0,0,.58-.45,1.39,1.39,0,0,0,.33-.55l.73.21a2.42,2.42,0,0,1-.43.72,2.89,2.89,0,0,1-.67.58,3.59,3.59,0,0,1-.86.4,3.53,3.53,0,0,1-1,.17l-.39.65a.94.94,0,0,1,.3-.07l.29,0a1.3,1.3,0,0,1,.79.22.79.79,0,0,1,.28.66.83.83,0,0,1-.36.72,1.79,1.79,0,0,1-1,.24,3.91,3.91,0,0,1-.79-.08,4.56,4.56,0,0,1-.65-.2Z"/>
<path fill="#F79930" d="M166.12,109a2.72,2.72,0,0,1-1-.18,2.42,2.42,0,0,1-.81-.51,2.25,2.25,0,0,1-.54-.75,2.29,2.29,0,0,1-.19-.94,1.9,1.9,0,0,1,.23-.92,2.26,2.26,0,0,1,.66-.72,3.57,3.57,0,0,1,1-.48,4.89,4.89,0,0,1,1.31-.17,6.69,6.69,0,0,1,1.25.12,5.62,5.62,0,0,1,1.13.3V104a2.42,2.42,0,0,0-.62-1.74,2.25,2.25,0,0,0-1.69-.64,3.53,3.53,0,0,0-1.19.23,6.27,6.27,0,0,0-1.29.69l-.28-.51a5.09,5.09,0,0,1,2.82-1,2.93,2.93,0,0,1,2.19.81,3,3,0,0,1,.8,2.23v3.77c0,.25.11.37.33.37v.67l-.16,0H170a.62.62,0,0,1-.47-.2.87.87,0,0,1-.21-.49v-.63a3.4,3.4,0,0,1-1.36,1.06A4.33,4.33,0,0,1,166.12,109Zm.15-.59a3.76,3.76,0,0,0,1.58-.33,2.6,2.6,0,0,0,1.1-.85,1,1,0,0,0,.24-.6v-1.36a5.68,5.68,0,0,0-1.11-.31,6.78,6.78,0,0,0-1.2-.11,4.19,4.19,0,0,0-1,.13,2.67,2.67,0,0,0-.82.35,1.7,1.7,0,0,0-.53.54,1.4,1.4,0,0,0-.18.7,1.8,1.8,0,0,0,.15.73,1.74,1.74,0,0,0,.41.58,1.86,1.86,0,0,0,.63.39A2.21,2.21,0,0,0,166.27,108.37Zm1.57-9.15a2.08,2.08,0,0,1-.58-.08,3.79,3.79,0,0,1-.45-.2l-.41-.21a.92.92,0,0,0-.42-.1.71.71,0,0,0-.41.11.77.77,0,0,0-.22.22,1.12,1.12,0,0,0-.1.24.87.87,0,0,0,0,.14h-.5a1.46,1.46,0,0,1,0-.26,1.32,1.32,0,0,1,.18-.41,1.8,1.8,0,0,1,.39-.39,1.14,1.14,0,0,1,.65-.17,1.24,1.24,0,0,1,.52.1,3.55,3.55,0,0,1,.44.21l.42.2a1.28,1.28,0,0,0,.5.09.84.84,0,0,0,.46-.11.74.74,0,0,0,.26-.23.62.62,0,0,0,.1-.24.49.49,0,0,0,0-.14h.51a1.27,1.27,0,0,1-.06.28,1.15,1.15,0,0,1-.19.41,1.44,1.44,0,0,1-.4.37A1.28,1.28,0,0,1,167.84,99.22Z"/>
<path fill="#F79930" d="M175.42,109a3.58,3.58,0,0,1-1.51-.31,3.88,3.88,0,0,1-2-2.15,4.31,4.31,0,0,1-.28-1.52,4.23,4.23,0,0,1,.29-1.55,4.46,4.46,0,0,1,.79-1.27,3.7,3.7,0,0,1,1.2-.87,3.56,3.56,0,0,1,1.49-.32,3.48,3.48,0,0,1,1.48.32,3.66,3.66,0,0,1,1.19.87,4.11,4.11,0,0,1,.81,1.27,4.22,4.22,0,0,1,.28,1.55,4.1,4.1,0,0,1-.28,1.52,4.2,4.2,0,0,1-.8,1.28,3.85,3.85,0,0,1-1.19.87A3.55,3.55,0,0,1,175.42,109Zm-3-3.95a3.43,3.43,0,0,0,.24,1.28,3.28,3.28,0,0,0,1.6,1.75,2.77,2.77,0,0,0,1.17.26,2.71,2.71,0,0,0,1.17-.26,3.27,3.27,0,0,0,1-.72,3.69,3.69,0,0,0,.65-1.06,3.59,3.59,0,0,0,0-2.58,3.5,3.5,0,0,0-.65-1.05,3.36,3.36,0,0,0-1-.72,2.65,2.65,0,0,0-2.33,0,3.11,3.11,0,0,0-1,.72,3.66,3.66,0,0,0-.65,1.08A3.54,3.54,0,0,0,172.39,105Z"/>
<path fill="#F79930" d="M47.2,2.21h8c2.8,0,4.84.76,6.1,2.28s1.9,3.75,1.9,6.68a8.72,8.72,0,0,1-2,6.16,7.66,7.66,0,0,1-5.92,2.2H51.72V34.61H47.2Zm6.6,14.08a8.68,8.68,0,0,0,3.1-.44,2.78,2.78,0,0,0,1.58-1.52A8,8,0,0,0,59,11.21a13.35,13.35,0,0,0-.36-3.64,2.54,2.54,0,0,0-1.42-1.64,8.59,8.59,0,0,0-3.34-.48H51.72V16.29Z"/>
<path fill="#F79930" d="M66.4,2.21h6.52q4.92,0,7.22,2c1.54,1.35,2.3,3.54,2.3,6.58q0,6.24-4,7.56L83,34.61H78.68l-4.24-15.2H70.92v15.2H66.4Zm6.24,14A6.11,6.11,0,0,0,76.82,15q1.26-1.15,1.26-4.2a8.84,8.84,0,0,0-.44-3.14A3,3,0,0,0,76.08,6a7.42,7.42,0,0,0-3.16-.54h-2V16.17Z"/>
<path fill="#F79930" d="M88.62,32.27q-2.06-2.7-2.06-7.82V12.17c0-3.36.7-5.91,2.08-7.64s3.66-2.6,6.8-2.6,5.41.87,6.78,2.62,2.06,4.29,2.06,7.62V24.49q0,5-2.08,7.76C100.82,34.06,98.56,35,95.44,35S90,34.07,88.62,32.27Zm10.22-2.34a9,9,0,0,0,.88-4.48V11.25a8.5,8.5,0,0,0-.88-4.38c-.58-1-1.72-1.42-3.4-1.42S92.59,5.92,92,6.87a8.6,8.6,0,0,0-.88,4.38v14.2A9.06,9.06,0,0,0,92,29.93c.59,1,1.74,1.48,3.44,1.48S98.26,30.92,98.84,29.93Z"/>
<path fill="#F79930" d="M110.08,32.11a13.88,13.88,0,0,1-2-7.9V12.77q0-5.32,1.92-8.08t6.8-2.76q4.36,0,6.26,2.36t1.9,7v2.56h-4.28V11.53a21.56,21.56,0,0,0-.2-3.44,3.12,3.12,0,0,0-1-1.92,3.91,3.91,0,0,0-2.62-.72,4.11,4.11,0,0,0-2.74.78A3.76,3.76,0,0,0,113,8.39a20,20,0,0,0-.28,3.7V24.93a15.05,15.05,0,0,0,.4,3.88,3.44,3.44,0,0,0,1.3,2,4.49,4.49,0,0,0,2.5.6,3.7,3.7,0,0,0,2.56-.76,3.45,3.45,0,0,0,1.06-2.08,22.61,22.61,0,0,0,.22-3.6v-2.4H125V25c0,3.23-.6,5.7-1.82,7.42S119.86,35,116.84,35Q112,35,110.08,32.11Z"/>
<path fill="#F79930" d="M129.32,2.21h12.56V5.57h-8V16.29h6.52v3.2h-6.52V31.37H142v3.24H129.32Z"/>
<path fill="#F79930" d="M147,32.45a11.4,11.4,0,0,1-2.38-6.92l4-1.08a12.6,12.6,0,0,0,1.22,5,3.53,3.53,0,0,0,3.38,1.92,3.44,3.44,0,0,0,2.66-1,4,4,0,0,0,.9-2.82,6.08,6.08,0,0,0-.84-3.32,14.23,14.23,0,0,0-2.68-2.92l-5.44-4.8a9.19,9.19,0,0,1-2.38-3.1,10,10,0,0,1-.74-4.06,7.31,7.31,0,0,1,2-5.52A9.07,9.07,0,0,1,158.12,4q2,2,2.36,6.32l-3.84,1A10.2,10.2,0,0,0,155.54,7a3.4,3.4,0,0,0-3.22-1.54,3.64,3.64,0,0,0-2.64.9A3.58,3.58,0,0,0,148.76,9a5.46,5.46,0,0,0,.48,2.42,6.61,6.61,0,0,0,1.64,2l5.48,4.8a16,16,0,0,1,3.38,4.08,9.88,9.88,0,0,1,1.26,5,7.47,7.47,0,0,1-2.16,5.64A8.77,8.77,0,0,1,147,32.45Z"/>
<path fill="#F79930" d="M165.94,32.45a11.4,11.4,0,0,1-2.38-6.92l4-1.08a12.6,12.6,0,0,0,1.22,5,3.53,3.53,0,0,0,3.38,1.92,3.44,3.44,0,0,0,2.66-1,4,4,0,0,0,.9-2.82,6.08,6.08,0,0,0-.84-3.32,14.23,14.23,0,0,0-2.68-2.92l-5.44-4.8a9.19,9.19,0,0,1-2.38-3.1,10,10,0,0,1-.74-4.06,7.31,7.31,0,0,1,2-5.52A9.07,9.07,0,0,1,177,4q2,2,2.36,6.32l-3.84,1A10.2,10.2,0,0,0,174.46,7a3.4,3.4,0,0,0-3.22-1.54,3.64,3.64,0,0,0-2.64.9A3.58,3.58,0,0,0,167.68,9a5.46,5.46,0,0,0,.48,2.42,6.61,6.61,0,0,0,1.64,2l5.48,4.8a16,16,0,0,1,3.38,4.08,9.88,9.88,0,0,1,1.26,5,7.47,7.47,0,0,1-2.16,5.64,8.77,8.77,0,0,1-11.82-.44Z"/>
<path fill="#F79930" d="M184.9,32.27q-2.06-2.7-2.06-7.82V12.17c0-3.36.7-5.91,2.08-7.64s3.65-2.6,6.8-2.6,5.41.87,6.78,2.62,2.06,4.29,2.06,7.62V24.49q0,5-2.08,7.76c-1.38,1.81-3.64,2.72-6.76,2.72S186.27,34.07,184.9,32.27Zm10.22-2.34a9,9,0,0,0,.88-4.48V11.25a8.5,8.5,0,0,0-.88-4.38c-.58-1-1.72-1.42-3.4-1.42s-2.85.47-3.44,1.42a8.5,8.5,0,0,0-.88,4.38v14.2a9,9,0,0,0,.88,4.48c.59,1,1.74,1.48,3.44,1.48S194.54,30.92,195.12,29.93Z"/>
<path fill="#F79930" d="M206.42,32.45A11.34,11.34,0,0,1,204,25.53l4-1.08a12.43,12.43,0,0,0,1.22,5,3.53,3.53,0,0,0,3.38,1.92,3.45,3.45,0,0,0,2.66-1,4,4,0,0,0,.9-2.82,6.08,6.08,0,0,0-.84-3.32,14.23,14.23,0,0,0-2.68-2.92l-5.44-4.8a9.06,9.06,0,0,1-2.38-3.1,10,10,0,0,1-.74-4.06,7.31,7.31,0,0,1,2-5.52A9.07,9.07,0,0,1,217.52,4c1.31,1.36,2.09,3.47,2.36,6.32l-3.84,1A10.2,10.2,0,0,0,214.94,7a3.4,3.4,0,0,0-3.22-1.54,3.61,3.61,0,0,0-2.64.9A3.58,3.58,0,0,0,208.16,9a5.46,5.46,0,0,0,.48,2.42,6.61,6.61,0,0,0,1.64,2l5.48,4.8a16.25,16.25,0,0,1,3.38,4.08,9.88,9.88,0,0,1,1.26,5,7.47,7.47,0,0,1-2.16,5.64,8.77,8.77,0,0,1-11.82-.44Z"/>
<path fill="#F79930" d="M48.56,80.11a13.88,13.88,0,0,1-2-7.9V60.77q0-5.33,1.92-8.08t6.8-2.76q4.36,0,6.26,2.36t1.9,7v2.56H59.2V59.53a21.56,21.56,0,0,0-.2-3.44,3.12,3.12,0,0,0-1-1.92,3.91,3.91,0,0,0-2.62-.72,4.11,4.11,0,0,0-2.74.78,3.76,3.76,0,0,0-1.18,2.16,20,20,0,0,0-.28,3.7V72.93a15.05,15.05,0,0,0,.4,3.88,3.44,3.44,0,0,0,1.3,2,4.49,4.49,0,0,0,2.5.6,3.7,3.7,0,0,0,2.56-.76A3.45,3.45,0,0,0,59,76.57,22.61,22.61,0,0,0,59.2,73v-2.4h4.28V73c0,3.23-.6,5.7-1.82,7.42S58.34,83,55.32,83Q50.52,83,48.56,80.11Z"/>
<path fill="#F79930" d="M69.26,80.27q-2.06-2.7-2.06-7.82V60.17c0-3.36.7-5.91,2.08-7.64s3.66-2.6,6.8-2.6,5.41.87,6.78,2.62,2.06,4.29,2.06,7.62V72.49q0,5-2.08,7.76C81.46,82.06,79.2,83,76.08,83S70.64,82.07,69.26,80.27Zm10.22-2.34a9,9,0,0,0,.88-4.48V59.25a8.5,8.5,0,0,0-.88-4.38c-.58-.95-1.72-1.42-3.4-1.42s-2.85.47-3.44,1.42a8.6,8.6,0,0,0-.88,4.38v14.2a9.06,9.06,0,0,0,.88,4.48c.59,1,1.74,1.48,3.44,1.48S78.9,78.92,79.48,77.93Z"/>
<path fill="#F79930" d="M89.36,50.21h3.08l9.2,21.52V50.21h3.76v32.4h-2.88L93.2,60.49V82.61H89.36Z"/>
<path fill="#F79930" d="M114,53.57h-5.48V50.21h15.32v3.36h-5.32v29H114Z"/>
<path fill="#F79930" d="M127,50.21h12.56v3.36h-8V64.29H138v3.2h-6.52V79.37h8.12v3.24H127Z"/>
<path fill="#F79930" d="M143.8,50.21h4.44L154,76.49l5.76-26.28h4.4l.6,32.4h-3.64l-.36-23.52-5.48,23.52h-2.56l-5.44-23.52-.36,23.52H143.2Z"/>
<path fill="#F79930" d="M169.68,50.21h8c2.8,0,4.84.76,6.1,2.28s1.9,3.75,1.9,6.68a8.72,8.72,0,0,1-2,6.16,7.66,7.66,0,0,1-5.92,2.2H174.2V82.61h-4.52Zm6.6,14.08a8.68,8.68,0,0,0,3.1-.44A2.78,2.78,0,0,0,181,62.33a8,8,0,0,0,.48-3.12,13.35,13.35,0,0,0-.36-3.64,2.54,2.54,0,0,0-1.42-1.64,8.59,8.59,0,0,0-3.34-.48H174.2V64.29Z"/>
<path fill="#F79930" d="M190.34,80.27q-2.06-2.7-2.06-7.82V60.17c0-3.36.7-5.91,2.08-7.64s3.66-2.6,6.8-2.6,5.41.87,6.78,2.62S206,56.84,206,60.17V72.49q0,5-2.08,7.76c-1.38,1.81-3.64,2.72-6.76,2.72S191.72,82.07,190.34,80.27Zm10.22-2.34a9,9,0,0,0,.88-4.48V59.25a8.5,8.5,0,0,0-.88-4.38c-.58-.95-1.72-1.42-3.4-1.42s-2.85.47-3.44,1.42a8.6,8.6,0,0,0-.88,4.38v14.2a9.06,9.06,0,0,0,.88,4.48c.59,1,1.74,1.48,3.44,1.48S200,78.92,200.56,77.93Z"/>
<path fill="#F79930" d="M210.44,50.21H217q4.92,0,7.22,2t2.3,6.58q0,6.24-4,7.56l4.6,16.24h-4.36l-4.24-15.2H215v15.2h-4.52Zm6.24,14A6.11,6.11,0,0,0,220.86,63q1.26-1.15,1.26-4.2a8.84,8.84,0,0,0-.44-3.14A3,3,0,0,0,220.12,54a7.45,7.45,0,0,0-3.16-.54h-2V64.17Z"/>
<path fill="#F79930" d="M236.32,50.21h4.36l6.92,32.4h-4.28l-1.48-8.16h-6.6l-1.56,8.16h-4.24Zm0-9.28h4.36l3.48,7h-3.24l-2.44-4.84-2.4,4.84h-3.2Zm4.92,30.28-2.72-14.6-2.68,14.6Z"/>
<path fill="#F79930" d="M250.88,50.21H254l9.2,21.52V50.21h3.76v32.4H264l-9.32-22.12V82.61h-3.84Z"/>
<path fill="#F79930" d="M272,50.21h12.56v3.36h-8V64.29H283v3.2h-6.52V79.37h8.12v3.24H272Z"/>
<path fill="#F79930" d="M289.74,80.27q-2.06-2.7-2.06-7.82V60.17q0-5,2.08-7.64c1.39-1.73,3.65-2.6,6.8-2.6s5.41.87,6.78,2.62,2.06,4.29,2.06,7.62V72.49q0,5-2.08,7.76T296.56,83C293.39,83,291.11,82.07,289.74,80.27ZM300,77.93a9,9,0,0,0,.88-4.48V59.25a8.5,8.5,0,0,0-.88-4.38c-.59-.95-1.72-1.42-3.4-1.42s-2.85.47-3.44,1.42a8.5,8.5,0,0,0-.88,4.38v14.2a9,9,0,0,0,.88,4.48c.59,1,1.73,1.48,3.44,1.48S299.37,78.92,300,77.93Z"/>
<path fill="#F79930" d="M311.26,80.45a11.34,11.34,0,0,1-2.38-6.92l4-1.08a12.43,12.43,0,0,0,1.22,5,3.53,3.53,0,0,0,3.38,1.92,3.45,3.45,0,0,0,2.66-1,4,4,0,0,0,.9-2.82,6.08,6.08,0,0,0-.84-3.32,14.23,14.23,0,0,0-2.68-2.92l-5.44-4.8a9.06,9.06,0,0,1-2.38-3.1,10,10,0,0,1-.74-4.06,7.31,7.31,0,0,1,2-5.52,9.07,9.07,0,0,1,11.36.08c1.31,1.36,2.09,3.47,2.36,6.32l-3.84,1a10.2,10.2,0,0,0-1.1-4.38,3.4,3.4,0,0,0-3.22-1.54A3.19,3.19,0,0,0,313,57a5.46,5.46,0,0,0,.48,2.42,6.61,6.61,0,0,0,1.64,2l5.48,4.8A16.25,16.25,0,0,1,324,70.25a9.88,9.88,0,0,1,1.26,5,7.47,7.47,0,0,1-2.16,5.64,8.77,8.77,0,0,1-11.82-.44Z"/>
</svg>