<?xml version="1.0" encoding="utf-8"?>
<!-- Generator: Adobe Illustrator 16.0.0, SVG Export Plug-In . SVG Version: 6.00 Build 0)  -->
<!DOCTYPE svg PUBLIC "-//W3C//DTD SVG 1.1//EN" "http://www.w3.org/Graphics/SVG/1.1/DTD/svg11.dtd">
<svg version="1.1" id="Layer_1" xmlns="http://www.w3.org/2000/svg" xmlns:xlink="http://www.w3.org/1999/xlink" x="0px" y="0px"
	 width="229.244px" height="131.892px" viewBox="0 0 229.244 131.892" enable-background="new 0 0 229.244 131.892"
	 xml:space="preserve">
<polygon fill="#F68D2E" points="0,102.831 33.654,0 33.654,131.892 "/>
<g>
	<path fill="#F68D2E" d="M54.123,19.795v14.768h-4.325V0.657h7.039c5.751,0,8.649,3.45,8.649,9.523c0,6.21-2.807,9.615-8.649,9.615
		H54.123z M54.123,5.027v10.397h2.714c1.196,0,2.024-0.138,2.438-0.414c0.414-0.276,0.69-0.506,0.828-0.644
		c0.69-0.69,1.012-2.116,1.012-4.187c0-2.208-0.368-3.497-1.058-4.232c-0.736-0.736-1.794-0.92-3.221-0.92H54.123z"/>
	<path fill="#F68D2E" d="M83.196,34.563h-4.371V24.534c0-2.99-1.426-4.462-4.325-4.462h-2.714v14.492h-4.325V0.657H74.5
		c5.843,0,8.603,3.358,8.603,9.661c0,3.128-0.69,5.521-2.024,7.13c-0.046,0.046-0.138,0.138-0.184,0.23
		c-0.092,0.092-0.184,0.184-0.276,0.23c1.656,1.61,2.576,3.818,2.576,6.625V34.563z M71.787,15.701H74.5
		c1.15,0,1.979-0.138,2.438-0.414c0.414-0.276,0.69-0.506,0.828-0.644c0.69-0.874,1.012-2.3,1.012-4.324
		c0-2.254-0.368-3.589-1.058-4.371c-0.736-0.736-1.794-0.92-3.221-0.92h-2.714V15.701z"/>
	<path fill="#F68D2E" d="M86.644,10.318c0-2.991,0.644-5.337,1.932-6.993c0.506-0.598,1.196-1.242,2.208-1.794
		c1.012-0.506,2.254-0.874,3.91-0.874c3.312,0,5.153,1.426,6.119,2.668c1.288,1.656,1.933,4.002,1.933,6.993v14.583
		c0,2.99-0.645,5.336-1.933,6.993c-0.966,1.242-2.806,2.668-6.119,2.668c-3.266,0-5.152-1.426-6.119-2.668
		c-1.288-1.656-1.932-4.002-1.932-6.993V10.318z M90.968,24.902c0,2.714,0.598,4.002,1.38,4.646s1.656,0.69,2.346,0.69
		c0.598,0,1.564-0.046,2.346-0.69c0.782-0.644,1.38-1.932,1.38-4.646V10.318c0-2.623-0.598-4.003-1.38-4.647
		c-0.782-0.644-1.748-0.644-2.346-0.644c-0.69,0-1.564,0-2.346,0.644s-1.38,2.024-1.38,4.647V24.902z"/>
	<path fill="#F68D2E" d="M105.273,10.364c0-2.99,0.644-5.337,1.932-6.993c0.966-1.242,2.807-2.668,6.119-2.668
		c3.312,0,5.107,1.426,6.073,2.668c1.334,1.703,1.979,4.003,1.979,6.993v2.162h-4.371v-2.162c0-2.623-0.598-4.049-1.334-4.693
		c-0.782-0.644-1.748-0.644-2.346-0.644c-0.69,0-1.564,0-2.346,0.644s-1.38,2.07-1.38,4.693v14.538c0,1.978,0.368,3.45,1.058,4.324
		c0.138,0.23,0.414,0.46,0.828,0.69c0.414,0.23,1.012,0.368,1.84,0.368c1.656,0,2.3-0.644,2.668-1.058
		c0.69-0.92,1.012-2.346,1.012-4.324V22.74h4.371v2.162c0,2.99-0.645,5.291-1.979,6.993c-0.966,1.242-2.76,2.714-6.073,2.714
		c-1.656,0-2.898-0.368-3.91-0.92c-1.012-0.506-1.702-1.196-2.208-1.794c-1.288-1.656-1.932-4.002-1.932-6.993V10.364z"/>
	<path fill="#F68D2E" d="M137.152,0.703v4.324h-9.707v10.443h9.707v4.325h-9.707v10.489h9.707v4.325h-14.032V0.703H137.152z"/>
	<path fill="#F68D2E" d="M140.232,22.786h4.324v2.162c0,1.978,0.368,3.404,1.059,4.278c0.138,0.23,0.414,0.414,0.828,0.644
		c0.414,0.23,1.012,0.368,1.887,0.368c1.655,0,2.576-0.828,3.127-1.84c0.507-1.012,0.599-2.3,0.599-3.22
		c0-1.61-0.552-2.668-1.334-3.45c-0.782-0.736-1.841-1.242-2.806-1.656l-0.828-0.368c-0.967-0.414-2.623-1.104-4.096-2.53
		c-1.84-1.794-2.76-4.048-2.76-6.809c0-2.898,0.782-5.337,2.254-7.039c1.426-1.656,3.451-2.668,5.844-2.668
		c3.312,0,5.152,1.426,6.118,2.668c1.334,1.702,1.978,4.049,1.978,7.039v2.162h-4.37v-2.162c0-2.623-0.599-4.049-1.38-4.693
		c-0.782-0.644-1.748-0.644-2.346-0.644c-1.795,0-2.669,0.966-3.176,2.163c-0.551,1.196-0.598,2.576-0.598,3.174
		c0,1.61,0.553,2.668,1.334,3.496c0.783,0.828,1.841,1.426,2.945,1.84l0.735,0.322c0.874,0.368,2.53,0.966,4.003,2.392
		c1.886,1.748,2.852,4.002,2.852,6.763c0,5.199-2.898,9.385-8.096,9.385c-5.383,0-8.098-3.542-8.098-9.615V22.786z"/>
	<path fill="#F68D2E" d="M158.494,22.786h4.324v2.162c0,1.978,0.367,3.404,1.059,4.278c0.137,0.23,0.414,0.414,0.828,0.644
		c0.414,0.23,1.012,0.368,1.885,0.368c1.656,0,2.577-0.828,3.129-1.84c0.506-1.012,0.598-2.3,0.598-3.22
		c0-1.61-0.551-2.668-1.334-3.45c-0.781-0.736-1.84-1.242-2.806-1.656l-0.828-0.368c-0.966-0.414-2.622-1.104-4.095-2.53
		c-1.84-1.794-2.76-4.048-2.76-6.809c0-2.898,0.781-5.337,2.254-7.039c1.426-1.656,3.45-2.668,5.842-2.668
		c3.312,0,5.153,1.426,6.119,2.668c1.334,1.702,1.979,4.049,1.979,7.039v2.162h-4.371v-2.162c0-2.623-0.598-4.049-1.379-4.693
		c-0.783-0.644-1.749-0.644-2.348-0.644c-1.793,0-2.668,0.966-3.174,2.163c-0.552,1.196-0.598,2.576-0.598,3.174
		c0,1.61,0.552,2.668,1.334,3.496s1.84,1.426,2.944,1.84l0.735,0.322c0.875,0.368,2.531,0.966,4.003,2.392
		c1.886,1.748,2.853,4.002,2.853,6.763c0,5.199-2.898,9.385-8.098,9.385c-5.382,0-8.096-3.542-8.096-9.615V22.786z"/>
	<path fill="#F68D2E" d="M176.756,10.318c0-2.991,0.644-5.337,1.932-6.993c0.506-0.598,1.196-1.242,2.209-1.794
		c1.012-0.506,2.254-0.874,3.91-0.874c3.312,0,5.152,1.426,6.118,2.668c1.288,1.656,1.933,4.002,1.933,6.993v14.583
		c0,2.99-0.645,5.336-1.933,6.993c-0.966,1.242-2.806,2.668-6.118,2.668c-3.267,0-5.152-1.426-6.119-2.668
		c-1.288-1.656-1.932-4.002-1.932-6.993V10.318z M181.08,24.902c0,2.714,0.598,4.002,1.38,4.646s1.656,0.69,2.347,0.69
		c0.598,0,1.564-0.046,2.346-0.69c0.782-0.644,1.381-1.932,1.381-4.646V10.318c0-2.623-0.599-4.003-1.381-4.647
		c-0.781-0.644-1.748-0.644-2.346-0.644c-0.69,0-1.564,0-2.347,0.644s-1.38,2.024-1.38,4.647V24.902z"/>
	<path fill="#F68D2E" d="M195.385,22.786h4.325v2.162c0,1.978,0.368,3.404,1.058,4.278c0.139,0.23,0.414,0.414,0.828,0.644
		c0.414,0.23,1.012,0.368,1.887,0.368c1.656,0,2.576-0.828,3.128-1.84c0.507-1.012,0.599-2.3,0.599-3.22
		c0-1.61-0.553-2.668-1.334-3.45c-0.783-0.736-1.841-1.242-2.807-1.656l-0.828-0.368c-0.967-0.414-2.623-1.104-4.095-2.53
		c-1.841-1.794-2.761-4.048-2.761-6.809c0-2.898,0.783-5.337,2.255-7.039c1.427-1.656,3.45-2.668,5.843-2.668
		c3.312,0,5.152,1.426,6.119,2.668c1.334,1.702,1.978,4.049,1.978,7.039v2.162h-4.37v-2.162c0-2.623-0.599-4.049-1.381-4.693
		c-0.781-0.644-1.748-0.644-2.346-0.644c-1.795,0-2.668,0.966-3.175,2.163c-0.552,1.196-0.598,2.576-0.598,3.174
		c0,1.61,0.552,2.668,1.334,3.496s1.841,1.426,2.944,1.84l0.736,0.322c0.874,0.368,2.529,0.966,4.002,2.392
		c1.887,1.748,2.853,4.002,2.853,6.763c0,5.199-2.898,9.385-8.097,9.385c-5.383,0-8.098-3.542-8.098-9.615V22.786z"/>
	<path fill="#F68D2E" d="M63.83,48.703v4.324h-9.707v10.443h9.707v4.325h-9.707v10.488h9.707v4.324H49.798V48.703H63.83z"/>
	<path fill="#F68D2E" d="M85.403,67.796v14.768h-4.325V48.657h7.039c5.751,0,8.649,3.45,8.649,9.523c0,6.21-2.807,9.615-8.649,9.615
		H85.403z M85.403,53.027v10.397h2.714c1.196,0,2.024-0.139,2.438-0.414c0.414-0.276,0.69-0.506,0.828-0.645
		c0.69-0.689,1.012-2.115,1.012-4.186c0-2.209-0.368-3.497-1.058-4.232c-0.736-0.737-1.794-0.921-3.221-0.921H85.403z"/>
	<path fill="#F68D2E" d="M114.475,82.563h-4.371V72.534c0-2.99-1.426-4.463-4.325-4.463h-2.714v14.492h-4.325V48.657h7.039
		c5.843,0,8.603,3.358,8.603,9.661c0,3.128-0.69,5.521-2.024,7.13c-0.046,0.047-0.138,0.139-0.184,0.23
		c-0.092,0.092-0.184,0.184-0.276,0.23c1.656,1.609,2.576,3.818,2.576,6.625V82.563z M103.066,63.7h2.714
		c1.15,0,1.979-0.138,2.438-0.414c0.414-0.275,0.69-0.506,0.828-0.644c0.69-0.874,1.012-2.3,1.012-4.324
		c0-2.255-0.368-3.589-1.058-4.37c-0.736-0.737-1.794-0.921-3.221-0.921h-2.714V63.7z"/>
	<path fill="#F68D2E" d="M117.923,58.318c0-2.991,0.644-5.337,1.932-6.993c0.506-0.598,1.196-1.242,2.208-1.794
		c1.012-0.506,2.254-0.874,3.91-0.874c3.312,0,5.153,1.426,6.118,2.668c1.289,1.656,1.934,4.002,1.934,6.993v14.583
		c0,2.99-0.645,5.337-1.934,6.993c-0.965,1.242-2.806,2.669-6.118,2.669c-3.266,0-5.152-1.427-6.119-2.669
		c-1.288-1.656-1.932-4.003-1.932-6.993V58.318z M122.248,72.901c0,2.715,0.598,4.003,1.38,4.646c0.782,0.645,1.656,0.69,2.346,0.69
		c0.599,0,1.564-0.046,2.347-0.69c0.781-0.644,1.38-1.932,1.38-4.646V58.318c0-2.622-0.599-4.003-1.38-4.647
		c-0.782-0.644-1.748-0.644-2.347-0.644c-0.69,0-1.564,0-2.346,0.644s-1.38,2.025-1.38,4.647V72.901z"/>
	<path fill="#F68D2E" d="M136.553,82.608V48.703h6.764c5.842,0,8.603,3.588,8.603,9.799v14.262c0,6.211-2.761,9.845-8.603,9.845
		H136.553z M140.878,53.027v25.257h2.438c1.104,0,2.162-0.138,2.943-0.874c0.736-0.735,1.289-2.116,1.289-4.646V58.502
		c0-2.53-0.553-3.91-1.289-4.646c-0.781-0.736-1.84-0.828-2.943-0.828H140.878z"/>
	<path fill="#F68D2E" d="M154.585,48.657h4.325v24.889c0,2.346,0.506,3.543,1.195,4.094c0.69,0.599,1.473,0.599,2.07,0.599
		s1.381,0,2.07-0.599c0.689-0.551,1.196-1.748,1.196-4.094V48.657h4.324v24.889c0,2.807-0.599,4.969-1.841,6.486
		c-0.92,1.242-2.668,2.531-5.75,2.531s-4.83-1.289-5.75-2.531c-1.242-1.518-1.841-3.68-1.841-6.486V48.657z"/>
	<path fill="#F68D2E" d="M173.215,48.657h19.184v4.37h-7.406v29.536h-4.371V53.027h-7.406V48.657z"/>
	<path fill="#F68D2E" d="M194.421,58.318c0-2.991,0.644-5.337,1.933-6.993c0.506-0.598,1.195-1.242,2.208-1.794
		c1.013-0.506,2.254-0.874,3.91-0.874c3.312,0,5.153,1.426,6.118,2.668c1.289,1.656,1.934,4.002,1.934,6.993v14.583
		c0,2.99-0.645,5.337-1.934,6.993c-0.965,1.242-2.806,2.669-6.118,2.669c-3.267,0-5.152-1.427-6.118-2.669
		c-1.289-1.656-1.933-4.003-1.933-6.993V58.318z M198.746,72.901c0,2.715,0.598,4.003,1.379,4.646
		c0.783,0.645,1.656,0.69,2.347,0.69c0.599,0,1.564-0.046,2.347-0.69c0.781-0.644,1.38-1.932,1.38-4.646V58.318
		c0-2.622-0.599-4.003-1.38-4.647c-0.782-0.644-1.748-0.644-2.347-0.644c-0.69,0-1.563,0-2.347,0.644
		c-0.781,0.644-1.379,2.025-1.379,4.647V72.901z"/>
	<path fill="#F68D2E" d="M213.051,70.786h4.324v2.162c0,1.978,0.368,3.404,1.059,4.277c0.138,0.23,0.414,0.414,0.828,0.645
		s1.012,0.368,1.887,0.368c1.655,0,2.576-0.828,3.127-1.841c0.507-1.012,0.599-2.299,0.599-3.22c0-1.61-0.552-2.669-1.334-3.45
		c-0.782-0.736-1.841-1.242-2.806-1.656l-0.828-0.368c-0.967-0.414-2.623-1.104-4.096-2.53c-1.84-1.794-2.76-4.049-2.76-6.809
		c0-2.898,0.782-5.337,2.254-7.039c1.426-1.656,3.451-2.668,5.844-2.668c3.312,0,5.152,1.426,6.118,2.668
		c1.334,1.702,1.978,4.049,1.978,7.039v2.162h-4.37v-2.162c0-2.623-0.599-4.049-1.38-4.693c-0.782-0.644-1.748-0.644-2.346-0.644
		c-1.795,0-2.669,0.966-3.176,2.163c-0.551,1.195-0.598,2.576-0.598,3.174c0,1.609,0.553,2.668,1.334,3.496
		c0.783,0.828,1.841,1.426,2.945,1.84l0.735,0.322c0.874,0.368,2.53,0.967,4.003,2.393c1.886,1.748,2.852,4.002,2.852,6.763
		c0,5.198-2.898,9.386-8.096,9.386c-5.383,0-8.098-3.543-8.098-9.615V70.786z"/>
	<path fill="#F68D2E" d="M49.798,106.364c0-2.99,0.644-5.336,1.932-6.992c0.966-1.242,2.807-2.669,6.119-2.669
		c3.312,0,5.107,1.427,6.073,2.669c1.334,1.702,1.979,4.002,1.979,6.992v2.163H61.53v-2.163c0-2.622-0.598-4.048-1.334-4.692
		c-0.782-0.644-1.748-0.644-2.346-0.644c-0.69,0-1.564,0-2.346,0.644c-0.782,0.645-1.38,2.07-1.38,4.692v14.538
		c0,1.979,0.368,3.45,1.058,4.324c0.138,0.23,0.414,0.46,0.828,0.69c0.414,0.229,1.012,0.368,1.84,0.368
		c1.656,0,2.3-0.645,2.668-1.059c0.69-0.92,1.012-2.346,1.012-4.324v-2.162H65.9v2.162c0,2.99-0.644,5.291-1.979,6.993
		c-0.966,1.241-2.76,2.714-6.073,2.714c-1.656,0-2.898-0.368-3.91-0.92c-1.012-0.506-1.702-1.196-2.208-1.794
		c-1.288-1.656-1.932-4.003-1.932-6.993V106.364z"/>
	<path fill="#F68D2E" d="M83.379,130.563h-4.371v-10.029c0-2.99-1.426-4.463-4.325-4.463H71.97v14.492h-4.325V96.657h7.039
		c5.843,0,8.603,3.358,8.603,9.661c0,3.129-0.69,5.521-2.024,7.131c-0.046,0.046-0.138,0.139-0.184,0.23
		c-0.092,0.092-0.184,0.184-0.276,0.229c1.656,1.61,2.576,3.818,2.576,6.625V130.563z M71.97,111.701h2.714
		c1.15,0,1.979-0.138,2.438-0.414c0.414-0.276,0.69-0.506,0.828-0.644c0.69-0.875,1.012-2.301,1.012-4.325
		c0-2.254-0.368-3.588-1.058-4.37c-0.736-0.736-1.794-0.92-3.221-0.92H71.97V111.701z"/>
	<path fill="#F68D2E" d="M92.532,130.609h-4.324V96.703h4.324V130.609z"/>
	<path fill="#F68D2E" d="M108.632,121.132h-5.889l-2.162,9.478h-4.462l7.821-33.906h3.451l7.913,33.906h-4.508L108.632,121.132z
		 M103.756,116.808h3.865l-1.933-8.327L103.756,116.808z"/>
	<path fill="#F68D2E" d="M116.221,96.657h19.184v4.371h-7.407v29.535h-4.37v-29.535h-7.407V96.657z"/>
	<path fill="#F68D2E" d="M143.131,130.609h-4.324V96.703h4.324V130.609z"/>
	<path fill="#F68D2E" d="M156.84,119.43l5.75-22.772h4.463l-8.511,33.906h-3.404l-8.419-33.906h4.463L156.84,119.43z"/>
	<path fill="#F68D2E" d="M167.925,106.318c0-2.99,0.644-5.336,1.933-6.992c0.506-0.599,1.195-1.242,2.208-1.795
		c1.013-0.506,2.254-0.874,3.91-0.874c3.312,0,5.153,1.427,6.118,2.669c1.289,1.656,1.934,4.002,1.934,6.992v14.584
		c0,2.99-0.645,5.337-1.934,6.993c-0.965,1.241-2.806,2.668-6.118,2.668c-3.267,0-5.152-1.427-6.118-2.668
		c-1.289-1.656-1.933-4.003-1.933-6.993V106.318z M172.25,120.902c0,2.714,0.598,4.002,1.379,4.646
		c0.783,0.645,1.656,0.69,2.347,0.69c0.599,0,1.564-0.046,2.347-0.69c0.781-0.645,1.38-1.933,1.38-4.646v-14.584
		c0-2.622-0.599-4.002-1.38-4.646c-0.782-0.644-1.748-0.644-2.347-0.644c-0.69,0-1.563,0-2.347,0.644
		c-0.781,0.645-1.379,2.024-1.379,4.646V120.902z"/>
	<path fill="#F68D2E" d="M186.555,118.786h4.324v2.162c0,1.979,0.368,3.404,1.059,4.278c0.138,0.23,0.414,0.414,0.828,0.645
		c0.414,0.229,1.012,0.368,1.887,0.368c1.655,0,2.576-0.828,3.127-1.841c0.507-1.012,0.599-2.3,0.599-3.22
		c0-1.61-0.552-2.669-1.334-3.451c-0.782-0.735-1.841-1.242-2.806-1.656l-0.828-0.367c-0.967-0.414-2.623-1.104-4.096-2.53
		c-1.84-1.795-2.76-4.049-2.76-6.81c0-2.898,0.782-5.336,2.254-7.038c1.426-1.656,3.451-2.669,5.844-2.669
		c3.312,0,5.152,1.427,6.118,2.669c1.334,1.702,1.978,4.048,1.978,7.038v2.163h-4.37v-2.163c0-2.622-0.599-4.048-1.38-4.692
		c-0.782-0.644-1.748-0.644-2.346-0.644c-1.795,0-2.669,0.966-3.176,2.162c-0.551,1.196-0.598,2.576-0.598,3.174
		c0,1.61,0.553,2.669,1.334,3.497c0.783,0.828,1.841,1.426,2.945,1.84l0.735,0.322c0.874,0.368,2.53,0.966,4.003,2.393
		c1.886,1.748,2.852,4.002,2.852,6.763c0,5.198-2.898,9.385-8.096,9.385c-5.383,0-8.098-3.543-8.098-9.615V118.786z"/>
</g>
</svg>
